<?xml version="1.0" encoding="UTF-8"?>
<svg width="110px" height="38px" viewBox="0 0 110 38" version="1.1" xmlns="http://www.w3.org/2000/svg" xmlns:xlink="http://www.w3.org/1999/xlink">
    <title>Kulturamt Logo_schwarz</title>
    <defs>
        <polygon id="path-1" points="0 0.0265861027 8.48993958 0.0265861027 8.48993958 5.96193353 0 5.96193353"></polygon>
        <polygon id="path-3" points="0.0498489426 0.300422961 7.25202417 0.300422961 7.25202417 5.96193353 0.0498489426 5.96193353"></polygon>
    </defs>
    <g id="Page-1" stroke="none" stroke-width="1" fill="none" fill-rule="evenodd">
        <g id="Kulturamt-Logo_schwarz" transform="translate(0.000000, 0.000000)">
            <g id="Group-4" transform="translate(0.000000, 31.570997)">
                <mask id="mask-2" fill="white">
                    <use xlink:href="#path-1"></use>
                </mask>
                <g id="Clip-2"></g>
                <path d="M3.15643505,5.89048338 L1.0797281,2.82577039 L3.29734139,0.0265861027 L4.40232628,0.0265861027 L2.14283988,2.67589124 L4.44386707,5.89048338 L3.15643505,5.89048338 Z M0,5.89048338 L1.02987915,5.89048338 L1.02987915,0.0265861027 L0,0.0265861027 L0,5.89048338 Z" id="Fill-1" fill="#ffffff" mask="url(#mask-2)"></path>
                <path d="M7.52652568,5.89048338 L7.52652568,5.62462236 C6.7870997,5.9070997 6.49664653,5.98187311 6.12277946,5.98187311 C5.72398792,5.98187311 5.32519637,5.81570997 5.11782477,5.56679758 C4.90181269,5.30093656 4.82703927,4.99353474 4.82703927,4.37873112 L4.82703927,1.63770393 L5.81537764,1.63770393 L5.81537764,4.25410876 C5.81537764,5.0018429 6.03138973,5.25108761 6.68773414,5.25108761 C6.92003021,5.25108761 7.16096677,5.21785498 7.50160121,5.15138973 L7.50160121,1.63770393 L8.48993958,1.63770393 L8.48993958,5.89048338 L7.52652568,5.89048338" id="Fill-3" fill="#ffffff" mask="url(#mask-2)"></path>
            </g>
            <polygon id="Fill-5" fill="#ffffff" points="9.64577039 37.4614804 10.6341088 37.4614804 10.6341088 31.0326284 9.64577039 31.0326284"></polygon>
            <g id="Group-9" transform="translate(11.299094, 31.570997)">
                <mask id="mask-4" fill="white">
                    <use xlink:href="#path-3"></use>
                </mask>
                <g id="Clip-7"></g>
                <path d="M1.81084592,5.94864048 C0.95510574,5.94864048 0.622779456,5.6163142 0.622779456,4.74429003 L0.622779456,2.22758308 L0.0498489426,2.22758308 L0.0498489426,1.63770393 L0.622779456,1.63770393 L0.622779456,0.665981873 L1.61145015,0.300422961 L1.61145015,1.63770393 L2.91549849,1.63770393 L2.91549849,2.22758308 L1.61145015,2.22758308 L1.61145015,4.56981873 C1.61145015,5.07661631 1.77761329,5.24244713 2.28407855,5.24244713 C2.46685801,5.24244713 2.6994864,5.21785498 2.91549849,5.1763142 L2.91549849,5.74093656 C2.25915408,5.9070997 2.05145015,5.94864048 1.81084592,5.94864048" id="Fill-6" fill="#ffffff" mask="url(#mask-4)"></path>
                <path d="M6.28827795,5.89048338 L6.28827795,5.62462236 C5.54918429,5.9070997 5.25839879,5.98187311 4.88453172,5.98187311 C4.48607251,5.98187311 4.08728097,5.81570997 3.87957704,5.56679758 C3.66356495,5.30093656 3.58879154,4.99353474 3.58879154,4.37873112 L3.58879154,1.63770393 L4.57712991,1.63770393 L4.57712991,4.25410876 C4.57712991,5.0018429 4.79314199,5.25108761 5.4494864,5.25108761 C5.6821148,5.25108761 5.92305136,5.21785498 6.2636858,5.15138973 L6.2636858,1.63770393 L7.25202417,1.63770393 L7.25202417,5.89048338 L6.28827795,5.89048338" id="Fill-8" fill="#ffffff" mask="url(#mask-4)"></path>
            </g>
            <path d="M21.3263746,33.9315106 C21.1435952,33.9315106 20.8777341,33.9647432 20.6949547,34.006284 L20.6949547,37.4614804 L19.7066163,37.4614804 L19.7066163,33.2087009 L20.6703625,33.2087009 L20.6703625,33.5244109 C21.1103625,33.3083988 21.5756193,33.1505438 21.7500906,33.1505438 C21.9328701,33.1505438 22.0737764,33.1837764 22.2153474,33.2502417 L22.2153474,34.1139577 C21.9661027,33.9896677 21.6753172,33.9315106 21.3263746,33.9315106" id="Fill-10" fill="#ffffff"></path>
            <path d="M25.0068882,35.4681873 C24.5250151,35.4844713 24.4502417,35.4844713 24.2259215,35.5180363 C23.7776133,35.575861 23.5449849,35.8088218 23.5449849,36.1740483 C23.5449849,36.6226888 23.8191541,36.8470091 24.358852,36.8470091 C24.5665559,36.8470091 24.7908761,36.8220846 25.0068882,36.7719033 L25.0068882,35.4681873 Z M25.0318127,37.4614804 L25.0318127,37.1956193 C24.3920846,37.4531722 24.1428399,37.5196375 23.8274622,37.5196375 C23.0468278,37.5196375 22.5400302,37.021148 22.5400302,36.2654381 C22.5400302,35.5014199 22.9800302,35.0777039 23.8523867,34.9946224 C24.2179456,34.9613897 24.5582477,34.9447734 25.0068882,34.9447734 L25.0068882,34.4878248 C25.0068882,34.006284 24.7908761,33.8151964 24.2342296,33.8151964 C23.8606949,33.8151964 23.3289728,33.8733535 22.9138973,33.9481269 L22.9138973,33.4080967 C23.711148,33.2087009 24.1926888,33.1256193 24.574864,33.1256193 C25.0151964,33.1256193 25.4139879,33.2502417 25.646284,33.4579456 C25.8875529,33.690574 25.9703021,33.9813595 25.9703021,34.6207553 L25.9703021,37.4614804 L25.0318127,37.4614804 L25.0318127,37.4614804 Z" id="Fill-11" fill="#ffffff"></path>
            <path d="M32.433716,37.4614804 L32.433716,34.8367674 C32.433716,34.0976737 32.2177039,33.848429 31.5613595,33.848429 C31.3121148,33.848429 31.0133535,33.8899698 30.672719,33.9730514 C30.7391843,34.1807553 30.7474924,34.2555287 30.7474924,34.4798489 L30.7474924,37.4614804 L29.7588218,37.4614804 L29.7588218,34.6872205 C29.7588218,34.0644411 29.5428097,33.848429 28.9117221,33.848429 C28.6707855,33.848429 28.3384592,33.8899698 28.0729305,33.9481269 L28.0729305,37.4614804 L27.0842598,37.4614804 L27.0842598,33.2087009 L28.048006,33.2087009 L28.048006,33.4745619 C28.8203323,33.1924169 29.1277341,33.1173112 29.4766767,33.1173112 C29.8834441,33.1173112 30.2074622,33.2419335 30.4483988,33.4911782 C30.4899396,33.4828701 30.5231722,33.4662538 30.5480967,33.4662538 C31.3951964,33.1837764 31.69429,33.1173112 32.0183082,33.1173112 C33.031571,33.1173112 33.4220544,33.5576435 33.4220544,34.712145 L33.4220544,37.4614804 L32.433716,37.4614804" id="Fill-12" fill="#ffffff"></path>
            <path d="M35.8656495,37.5196375 C35.0102417,37.5196375 34.6779154,37.1873112 34.6779154,36.315287 L34.6779154,33.7985801 L34.1049849,33.7985801 L34.1049849,33.2087009 L34.6779154,33.2087009 L34.6779154,32.2369789 L35.6662538,31.8714199 L35.6662538,33.2087009 L36.9706344,33.2087009 L36.9706344,33.7985801 L35.6662538,33.7985801 L35.6662538,36.1408157 C35.6662538,36.6476133 35.8324169,36.8134441 36.3392145,36.8134441 C36.521994,36.8134441 36.7546224,36.788852 36.9706344,36.7473112 L36.9706344,37.3119335 C36.31429,37.4780967 36.1065861,37.5196375 35.8656495,37.5196375" id="Fill-13" fill="#ffffff"></path>
            <polygon id="Fill-14" fill="#0000ee" points="1.46024169 24.1558006 25.5472508 24.1558006 25.5472508 0.0701208459 1.46024169 0.0701208459"></polygon>
            <polyline id="Fill-15" fill="#ffffff" points="25.5472508 0.0701208459 109.844804 0.0701208459 109.844804 24.1558006 103.820725 24.1558006 100.81284 6.02574018 97.8022961 24.1558006 94.7910876 6.02574018 91.7805438 24.1558006 25.5472508 24.1558006 25.5472508 0.0701208459"></polyline>
            <path d="M33.7520544,14.4209668 C33.7520544,13.421994 33.3243505,12.7563444 32.3373414,12.2329305 L31.1366465,11.5912085 C30.3397281,11.1631722 30.0785196,10.8777039 30.0785196,10.402145 C30.0785196,9.65308157 30.5540785,9.29682779 31.5646828,9.29682779 C32.1588822,9.29682779 32.8009366,9.40383686 33.4669184,9.59392749 L33.4669184,8.69 C32.4918731,8.3929003 31.9451964,8.28622356 31.3742598,8.28622356 C29.6624471,8.28622356 28.6634743,9.13 28.6634743,10.5686405 C28.6634743,11.4958308 29.0795468,12.1265861 30.0545921,12.6725982 L31.5168278,13.4814804 C32.0758006,13.7902115 32.3014502,14.1238671 32.3014502,14.6110574 C32.3014502,15.4548338 31.7547734,15.8473112 30.613565,15.8473112 C30.030997,15.8473112 29.448429,15.7642296 28.5567976,15.5618429 L28.5567976,16.4780665 C29.6381873,16.7625378 30.3516918,16.8934743 30.8990332,16.8934743 C32.6703323,16.8934743 33.7520544,15.9543202 33.7520544,14.4209668" id="Fill-16" fill="#0000ee"></path>
            <path d="M38.3414804,16.5724471 L38.3414804,15.7642296 C38.0327492,15.8240483 37.6997583,15.8596073 37.4385498,15.8596073 C36.7134139,15.8596073 36.475136,15.6216616 36.475136,14.8965257 L36.475136,11.5436858 L38.3414804,11.5436858 L38.3414804,10.6992447 L36.475136,10.6992447 L36.475136,8.78537764 L35.060423,9.30879154 L35.060423,10.6992447 L34.2402417,10.6992447 L34.2402417,11.5436858 L35.060423,11.5436858 L35.060423,15.1461027 C35.060423,16.3939879 35.5363142,16.8695468 36.7606042,16.8695468 C37.1048943,16.8695468 37.401994,16.8103927 38.3414804,16.5724471" id="Fill-17" fill="#0000ee"></path>
            <path d="M42.6122054,15.8001208 C42.3024773,15.8712387 41.9824471,15.9071299 41.6843505,15.9071299 C40.9120242,15.9071299 40.5195468,15.5857704 40.5195468,14.943716 C40.5195468,14.4209668 40.8522054,14.0879758 41.4942598,14.0042296 C41.8156193,13.9570393 41.9226284,13.9570393 42.6122054,13.9331118 L42.6122054,15.8001208 Z M43.9913595,16.7864653 L43.9913595,12.7207855 C43.9913595,11.8048943 43.872719,11.3891541 43.527432,11.0561631 C43.1947734,10.7587311 42.6235045,10.5806042 41.9940785,10.5806042 C41.4464048,10.5806042 40.7578248,10.6992447 39.6159517,10.984713 L39.6159517,11.7573716 C40.2101511,11.6503625 40.9718429,11.567281 41.5062236,11.567281 C42.3024773,11.567281 42.6122054,11.8407855 42.6122054,12.5300302 L42.6122054,13.1843807 C41.9698187,13.1843807 41.4826284,13.2079758 40.9592145,13.2558308 C39.7113293,13.3748036 39.081571,13.9809668 39.081571,15.0746526 C39.081571,16.1567069 39.8067069,16.8695468 40.9236556,16.8695468 C41.3749547,16.8695468 41.7318731,16.7751662 42.6477644,16.4066163 L42.6477644,16.7864653 L43.9913595,16.7864653 L43.9913595,16.7864653 Z" id="Fill-18" fill="#0000ee"></path>
            <path d="M49.437855,15.7403021 C49.0809366,15.8114199 48.7958006,15.8473112 48.4747734,15.8473112 C47.3574924,15.8473112 46.7154381,15.0979154 46.7154381,13.7902115 C46.7154381,12.3638671 47.4043505,11.5553172 48.6289728,11.5553172 C48.9024773,11.5553172 49.2115408,11.5912085 49.437855,11.626435 L49.437855,15.7403021 Z M50.8529003,16.7864653 L50.8529003,7.58435045 L49.437855,7.58435045 L49.437855,10.9135952 C48.9626284,10.7115408 48.5694864,10.6281269 48.1294864,10.6281269 C46.4655287,10.6281269 45.2282779,12.0312085 45.2282779,13.9098489 C45.2282779,15.7403021 46.2043202,16.9051057 47.7137462,16.9051057 C48.117855,16.9051057 48.51,16.7980967 49.4617825,16.4179154 L49.4617825,16.7864653 L50.8529003,16.7864653 L50.8529003,16.7864653 Z" id="Fill-19" fill="#0000ee"></path>
            <path d="M55.9654079,16.5724471 L55.9654079,15.7642296 C55.6570091,15.8240483 55.3240181,15.8596073 55.0628097,15.8596073 C54.3373414,15.8596073 54.0993958,15.6216616 54.0993958,14.8965257 L54.0993958,11.5436858 L55.9654079,11.5436858 L55.9654079,10.6992447 L54.0993958,10.6992447 L54.0993958,8.78537764 L52.6843505,9.30879154 L52.6843505,10.6992447 L51.8648338,10.6992447 L51.8648338,11.5436858 L52.6843505,11.5436858 L52.6843505,15.1461027 C52.6843505,16.3939879 53.1602417,16.8695468 54.384864,16.8695468 C54.7294864,16.8695468 55.0262538,16.8103927 55.9654079,16.5724471" id="Fill-20" fill="#0000ee"></path>
            <path d="M59.4272508,16.7864653 L60.9021148,16.7864653 L60.9021148,8.3929003 L59.4272508,8.3929003 L59.4272508,16.7864653 Z M65.7883082,16.7864653 L62.4949547,12.1854079 L65.7288218,8.3929003 L64.1469486,8.3929003 L60.9732326,12.399426 L63.9452266,16.7864653 L65.7883082,16.7864653 L65.7883082,16.7864653 Z" id="Fill-21" fill="#0000ee"></path>
            <path d="M70.7486103,13.7187613 C70.7486103,15.2531118 70.224864,16.0855891 69.2744109,16.0855891 C68.2877341,16.0855891 67.7879154,15.2886707 67.7879154,13.7074622 C67.7879154,12.2329305 68.3229607,11.4011178 69.2624471,11.4011178 C70.2364955,11.4011178 70.7486103,12.2096677 70.7486103,13.7187613 Z M72.2347734,13.6483082 C72.2347734,11.7214804 71.1287915,10.5566767 69.3096375,10.5566767 C67.4200302,10.5566767 66.3017523,11.7816314 66.3017523,13.87429 C66.3017523,15.7642296 67.4200302,16.9293656 69.2268882,16.9293656 C71.1041994,16.9293656 72.2347734,15.7044109 72.2347734,13.6483082 Z M68.8819335,8.9163142 C68.8819335,8.42879154 68.6320242,8.17888218 68.1561329,8.17888218 C67.6453474,8.17888218 67.3954381,8.44042296 67.3954381,8.95220544 C67.3954381,9.43939577 67.633716,9.66504532 68.1448338,9.66504532 C68.6087613,9.66504532 68.8819335,9.39187311 68.8819335,8.9163142 Z M71.1287915,8.9163142 C71.1287915,8.42879154 70.8788822,8.17888218 70.4033233,8.17888218 C69.9038369,8.17888218 69.6422961,8.44042296 69.6422961,8.95220544 C69.6422961,9.43939577 69.8809063,9.66504532 70.3916918,9.66504532 C70.8556193,9.66504532 71.1287915,9.39187311 71.1287915,8.9163142 L71.1287915,8.9163142 Z" id="Fill-22" fill="#0000ee"></path>
            <polygon id="Fill-23" fill="#0000ee" points="73.5212085 16.7864653 74.9355891 16.7864653 74.9355891 7.58435045 73.5212085 7.58435045"></polygon>
            <path d="M81.8310272,16.7864653 L81.8310272,12.8633535 C81.8310272,11.9840181 81.7240181,11.5436858 81.415287,11.1631722 C81.1175227,10.8065861 80.5475831,10.5686405 79.9766465,10.5686405 C79.4409366,10.5686405 79.0371601,10.6759819 77.9667372,11.0797583 L77.9667372,10.6992447 L76.5875831,10.6992447 L76.5875831,16.7864653 L78.0022961,16.7864653 L78.0022961,11.7573716 C78.478852,11.6623263 78.8347734,11.615136 79.168429,11.615136 C80.1065861,11.615136 80.4159819,11.9713897 80.4159819,13.0418127 L80.4159819,16.7864653 L81.8310272,16.7864653" id="Fill-24" fill="#0000ee"></path>
            <polygon id="Fill-25" fill="#ffffff" points="0.255226586 24.1558006 1.46190332 24.1558006 1.46190332 0.0701208459 0.255226586 0.0701208459"></polygon>
            <path d="M11.8175227,14.9659819 C11.8045619,14.786858 12.0365257,14.7609366 12.0318731,14.550574 C12.0209063,14.0683686 12.3033837,14.5728399 12.3615408,14.8247432 C12.4077341,15.0258006 12.2837764,15.1693656 12.1189426,15.1793353 C11.9640785,15.1886405 11.8294864,15.1304834 11.8175227,14.9659819 Z M12.7879154,14.9659819 C12.7746224,14.786858 13.0069184,14.7609366 13.0019335,14.550574 C12.9906344,14.0683686 13.2731118,14.5728399 13.3316012,14.8247432 C13.3777946,15.0258006 13.2538369,15.1693656 13.089003,15.1793353 C12.9338066,15.1886405 12.7995468,15.1304834 12.7879154,14.9659819 Z M13.7579758,14.9659819 C13.7446828,14.786858 13.9769789,14.7609366 13.971994,14.550574 C13.9606949,14.0683686 14.2431722,14.5728399 14.301994,14.8247432 C14.347855,15.0258006 14.2238973,15.1693656 14.0590634,15.1793353 C13.9038671,15.1886405 13.7696073,15.1304834 13.7579758,14.9659819 Z M14.7277039,14.9659819 C14.7144109,14.786858 14.9470393,14.7609366 14.9417221,14.550574 C14.9310876,14.0683686 15.213565,14.5728399 15.2717221,14.8247432 C15.3175831,15.0258006 15.1939577,15.1693656 15.0291239,15.1793353 C14.8739275,15.1886405 14.7396677,15.1304834 14.7277039,14.9659819 Z M11.3326586,13.8144713 C11.3196979,13.6350151 11.5513293,13.609426 11.5470091,13.3983988 C11.53571,12.9165257 11.8181873,13.420997 11.8770091,13.6732326 C11.9228701,13.87429 11.7982477,14.0175227 11.6340785,14.0274924 C11.4788822,14.0364653 11.3446224,13.9786405 11.3326586,13.8144713 Z M12.302719,13.8144713 C12.2897583,13.6350151 12.5220544,13.609426 12.5170695,13.3983988 C12.5057704,12.9165257 12.7882477,13.420997 12.8464048,13.6732326 C12.8929305,13.87429 12.7686405,14.0175227 12.604139,14.0274924 C12.4489426,14.0364653 12.3143505,13.9786405 12.302719,13.8144713 Z M13.2724471,13.8144713 C13.2594864,13.6350151 13.4921148,13.609426 13.4871299,13.3983988 C13.4758308,12.9165257 13.7586405,13.420997 13.8167976,13.6732326 C13.8633233,13.87429 13.7387009,14.0175227 13.5741994,14.0274924 C13.419003,14.0364653 13.2844109,13.9786405 13.2724471,13.8144713 Z M14.2428399,13.8144713 C14.2295468,13.6350151 14.4618429,13.609426 14.456858,13.3983988 C14.4455589,12.9165257 14.7280363,13.420997 14.786858,13.6732326 C14.832719,13.87429 14.7087613,14.0175227 14.5442598,14.0274924 C14.3890634,14.0364653 14.2544713,13.9786405 14.2428399,13.8144713 Z M15.2129003,13.8144713 C15.1996073,13.6350151 15.4319033,13.609426 15.4269184,13.3983988 C15.4156193,12.9165257 15.6987613,13.420997 15.7569184,13.6732326 C15.8027795,13.87429 15.6788218,14.0175227 15.5146526,14.0274924 C15.3594562,14.0364653 15.2251964,13.9786405 15.2129003,13.8144713 Z M12.302719,16.0330816 C12.2897583,15.8539577 12.5220544,15.8273716 12.5170695,15.6176737 C12.5057704,15.135136 12.7882477,15.6399396 12.8464048,15.8918429 C12.8929305,16.0929003 12.7686405,16.2364653 12.604139,16.246435 C12.4489426,16.2557402 12.3143505,16.1975831 12.302719,16.0330816 Z M14.2428399,16.0330816 C14.2295468,15.8539577 14.4618429,15.8273716 14.456858,15.6176737 C14.4455589,15.135136 14.7280363,15.6399396 14.786858,15.8918429 C14.832719,16.0929003 14.7087613,16.2364653 14.5442598,16.246435 C14.3890634,16.2557402 14.2544713,16.1975831 14.2428399,16.0330816 Z M11.3326586,10.9232326 L11.6656495,11.5154381 L11.943142,10.9232326 L12.2219637,11.5157704 L12.557281,10.9238973 L12.5569486,12.3887915 L11.3326586,12.3887915 L11.3326586,10.9232326 Z M11.4439879,11.3270091 L11.4439879,12.2774622 L12.4456193,12.2774622 L12.4456193,11.3253474 L12.2219637,11.7324471 L11.943142,11.1399094 L11.6656495,11.7327795 L11.4439879,11.3270091 Z M13.0494562,11.3270091 L13.0494562,12.2774622 L14.0510876,12.2774622 L14.0514199,11.3253474 L13.8277644,11.7324471 L13.5486103,11.1399094 L13.2717825,11.7327795 L13.0494562,11.3270091 Z M12.9381269,10.9232326 L13.2717825,11.5154381 L13.5486103,10.9232326 L13.8280967,11.5157704 L14.1627492,10.9238973 L14.1624169,12.3887915 L12.9381269,12.3887915 L12.9381269,10.9232326 Z M14.6545921,11.3270091 L14.6545921,12.2774622 L15.6558912,12.2774622 L15.6562236,11.3253474 L15.4322356,11.7324471 L15.1534139,11.1399094 L14.8765861,11.7327795 L14.6545921,11.3270091 Z M14.5429305,10.9232326 L14.8765861,11.5154381 L15.1534139,10.9232326 L15.4329003,11.5157704 L15.7678852,10.9238973 L15.7675529,12.3887915 L14.5429305,12.3887915 L14.5429305,10.9232326 Z M17.1899094,6.24108761 C17.0333837,6.24108761 16.906435,6.36803625 16.906435,6.52422961 C16.906435,6.68108761 17.0333837,6.80770393 17.1899094,6.80770393 C17.3467674,6.80770393 17.473716,6.68108761 17.473716,6.52422961 C17.473716,6.36803625 17.3467674,6.24108761 17.1899094,6.24108761 Z M9.90066465,6.24108761 C9.74380665,6.24108761 9.61719033,6.36803625 9.61719033,6.52422961 C9.61719033,6.68108761 9.74380665,6.80770393 9.90066465,6.80770393 C10.0575227,6.80770393 10.1844713,6.68108761 10.1844713,6.52422961 C10.1844713,6.36803625 10.0575227,6.24108761 9.90066465,6.24108761 Z M8.19782477,6.60066465 C8.00308157,6.70567976 7.86682779,6.88314199 7.93495468,7.22012085 C8.43975831,6.98782477 9.02531722,6.98583082 9.54441088,7.15963746 C9.39586103,6.81601208 9.20510574,6.61960725 8.91564955,6.44181269 C8.70462236,6.45610272 8.41250755,6.48468278 8.19782477,6.60066465 Z M8.7355287,7.64217523 C8.98111782,7.7897281 9.08280967,7.71329305 9.33703927,7.68238671 C9.45567976,7.668429 9.59791541,7.65978852 9.74679758,7.67706949 C9.71555891,7.60462236 9.68099698,7.51422961 9.64676737,7.42018127 C9.37126888,7.53716012 9.03462236,7.63652568 8.7355287,7.64217523 Z M18.353716,7.64217523 C18.055287,7.63652568 17.7183082,7.53716012 17.4428097,7.42018127 C17.4089124,7.51422961 17.3736858,7.60462236 17.3427795,7.67706949 C17.4913293,7.65978852 17.6342296,7.668429 17.7525378,7.68238671 C18.0067674,7.71329305 18.1081269,7.7897281 18.353716,7.64217523 Z M18.8920846,6.60066465 C18.6767372,6.48468278 18.385287,6.45610272 18.1742598,6.44181269 C17.8848036,6.61960725 17.6940483,6.81601208 17.5448338,7.15963746 C18.0639275,6.98583082 18.6498187,6.98782477 19.15429,7.22012085 C19.2227492,6.88314199 19.0868278,6.70567976 18.8920846,6.60066465 Z M18.9578852,6.47870091 C19.3480363,6.68906344 19.3536858,7.03135952 19.2456798,7.4205136 C18.7039879,7.14169184 18.1649547,7.10114804 17.5973414,7.28824773 C17.5813897,7.29356495 17.5621148,7.30054381 17.5408459,7.30951662 C17.8595468,7.43978852 18.2553474,7.54546828 18.5614199,7.48830816 L18.7681269,7.44975831 C18.6700906,7.55477341 18.5783686,7.6607855 18.4577341,7.74054381 C18.1566465,7.93794562 18.0406647,7.85719033 17.7359215,7.81996979 C17.536858,7.7960423 17.378006,7.81066465 17.1982175,7.84555891 C17.1719637,7.88145015 17.1443807,7.90537764 17.1144713,7.9123565 C15.0925982,8.37096677 15.5159819,10.0970695 16.6289426,10.5197885 C17.335136,10.7883082 18.496284,10.4848943 18.4677039,10.2439577 C18.4583988,10.1635347 18.4524169,10.055861 18.4444411,9.97743202 C18.5305136,9.8873716 18.591994,9.79697885 18.6109366,9.79731118 C18.6418429,9.79797583 18.6993353,10.0389124 19.1011178,10.2187009 C21.6749849,11.3685498 23.914864,11.2299698 23.9324773,11.2329607 C24.1026284,11.2612085 23.2129909,12.3077039 22.7354381,12.4253474 C22.3655589,12.5167372 21.3306949,12.5114199 18.6577946,11.8185196 C18.5168882,11.7822961 18.3507251,11.66 18.3746526,11.567281 C18.2749547,11.5971903 18.1573112,11.6054985 18.1573112,11.6038369 C18.244713,12.0594562 18.3886103,12.2794562 19.531148,12.7656495 C20.5846224,13.2136254 21.9355287,13.6100906 22.1438973,13.6838671 C22.3449547,13.7523263 21.9109366,14.393716 21.1013897,14.4771299 C20.6138671,14.5269789 19.423142,14.2391843 18.085861,13.8018429 C17.9396375,13.7536556 17.8897885,13.6087613 17.8548943,13.51571 C17.7734743,13.5422961 17.676435,13.5585801 17.6744411,13.5572508 C17.757855,13.8550151 17.7924169,14.1793656 18.5129003,14.692145 C19.1463142,15.1417825 20.2602719,15.5807855 20.7271903,15.7336556 C20.994713,15.8207251 20.2765559,16.4155891 19.770423,16.3690634 C19.0223565,16.3002719 17.9409668,15.8662538 17.0400302,15.3744109 C16.9386707,15.3185801 16.8845015,15.1218429 16.8825076,15.1211782 C16.8060725,15.1470997 16.7376133,15.1510876 16.7406042,15.1500906 C16.7406042,15.1517523 16.7000604,15.5269486 16.84429,15.7429607 C17.2361027,16.3301813 17.7940785,16.7774924 19.4783082,17.4703927 C19.7744109,17.5923565 19.1423263,18.0187311 18.6501511,18.0087613 C17.5724169,17.9878248 16.2986103,17.335136 15.6651964,16.8356495 C15.5189728,16.720997 15.5060121,16.4896979 15.5060121,16.4877039 C15.5016918,16.4870393 15.3793958,16.5385498 15.2664048,16.6179758 C15.2664048,16.6179758 15.3049547,16.9925076 15.5701511,17.3451057 C15.8157402,17.6711178 16.0729607,17.94429 16.3863444,18.2387311 C16.8592447,18.6843807 18.0662538,19.7272205 18.0662538,19.7265559 C18.0087613,19.800997 17.7309366,20.1994562 17.6883988,20.2599396 C16.9931722,19.6949849 15.9403625,19.1423263 15.5495468,18.9329607 C15.1245015,18.7066465 14.2950151,18.26 14.3950453,18.5275227 C14.6954683,19.3290937 15.163716,20.271571 15.2846828,20.5131722 C14.977281,20.3802417 14.4638369,20.2948338 14.3029909,20.2755589 C14.2833837,20.3038066 14.237855,20.3995166 14.2169184,20.4144713 C14.2245619,20.4161329 14.3485196,20.4922356 14.3485196,20.490574 C13.9520544,21.4446828 13.547281,22.0830816 13.547281,22.0830816 C13.5432931,22.0830816 13.138852,21.4446828 12.7423867,20.490574 C12.7423867,20.4922356 12.8663444,20.4161329 12.8736556,20.4144713 C12.8523867,20.3995166 12.8071903,20.3038066 12.7879154,20.2755589 C12.6270695,20.2948338 12.1132931,20.3802417 11.8058912,20.5131722 C11.9265257,20.271571 12.3947734,19.3290937 12.6955287,18.5275227 C12.7958912,18.26 11.9664048,18.7066465 11.5416918,18.9329607 C11.1502115,19.1423263 10.0977341,19.6949849 9.40250755,20.2599396 C9.35996979,20.1994562 9.08181269,19.800997 9.02465257,19.7265559 C9.02465257,19.7272205 10.2313293,18.6843807 10.7045619,18.2387311 C11.0179456,17.94429 11.2751662,17.6711178 11.5207553,17.3451057 C11.785287,16.9925076 11.8245015,16.6179758 11.8245015,16.6179758 C11.7115106,16.5385498 11.5888822,16.4870393 11.5842296,16.4877039 C11.5842296,16.4896979 11.5719335,16.720997 11.4253776,16.8356495 C10.7919637,17.335136 9.5181571,17.9878248 8.44009063,18.0087613 C7.94858006,18.0187311 7.31616314,17.5923565 7.61259819,17.4703927 C9.29649547,16.7774924 9.85480363,16.3301813 10.2466163,15.7429607 C10.3905136,15.5269486 10.3499698,15.1517523 10.3499698,15.1500906 C10.3529607,15.1510876 10.2848338,15.1470997 10.2080665,15.1211782 C10.2064048,15.1218429 10.1519033,15.3185801 10.0508761,15.3744109 C9.14960725,15.8662538 8.06854985,16.3002719 7.32048338,16.3690634 C6.81401813,16.4155891 6.09586103,15.8207251 6.36338369,15.7336556 C6.83030211,15.5807855 7.94425982,15.1417825 8.57800604,14.692145 C9.29848943,14.1793656 9.33338369,13.8550151 9.41613293,13.5572508 C9.4144713,13.5585801 9.31743202,13.5422961 9.23601208,13.51571 C9.20111782,13.6087613 9.15093656,13.7536556 9.00438066,13.8018429 C7.66743202,14.2391843 6.47670695,14.5269789 5.98951662,14.4771299 C5.18030211,14.393716 4.74595166,13.7523263 4.94667674,13.6838671 C5.15537764,13.6100906 6.50628399,13.2136254 7.55909366,12.7656495 C8.7026284,12.2794562 8.84586103,12.0594562 8.93359517,11.6038369 C8.93359517,11.6054985 8.81528701,11.5971903 8.71592145,11.567281 C8.74018127,11.66 8.57401813,11.7822961 8.43344411,11.8185196 C5.75987915,12.5114199 4.72501511,12.5167372 4.35546828,12.4253474 C3.87791541,12.3077039 2.98794562,11.2612085 3.158429,11.2329607 C3.17537764,11.2299698 5.41558912,11.3685498 7.98945619,10.2187009 C8.39190332,10.0389124 8.44873112,9.79797583 8.47996979,9.79731118 C8.49891239,9.79697885 8.56039275,9.8873716 8.64613293,9.97743202 C8.63848943,10.055861 8.63250755,10.1635347 8.62287009,10.2439577 C8.59429003,10.4848943 9.75543807,10.7883082 10.4616314,10.5197885 C11.5745921,10.0970695 11.9979758,8.37096677 9.97676737,7.9123565 C9.94586103,7.90537764 9.91861027,7.8821148 9.89302115,7.84555891 C9.71190332,7.81066465 9.55305136,7.7960423 9.35332326,7.81996979 C9.04891239,7.85719033 8.93259819,7.93794562 8.63217523,7.74054381 C8.51120846,7.6607855 8.41915408,7.55477341 8.32145015,7.44975831 L8.52848943,7.48830816 C8.83422961,7.54546828 9.22969789,7.43978852 9.54873112,7.30951662 C9.52779456,7.30054381 9.50818731,7.29356495 9.49190332,7.28824773 C8.92495468,7.10114804 8.38558912,7.14169184 7.84422961,7.4205136 C7.73522659,7.03135952 7.74154079,6.68906344 8.13169184,6.47870091 C8.35734139,6.35740181 8.63217523,6.32317221 8.88540785,6.30489426 C9.03163142,6.20785498 9.15858006,6.12012085 9.22238671,6.10583082 C9.49522659,6.04534743 9.7634139,6.01776435 10.0282779,6.01012085 C10.5477039,5.99483384 10.9657704,6.02175227 11.285136,6.19655589 C11.4267069,6.27365559 11.5922054,6.30190332 11.5915408,6.32716012 C11.5905438,6.35607251 11.4459819,6.35274924 11.3828399,6.36936556 C11.2625378,6.40160121 11.173142,6.48102719 11.1947432,6.4976435 C11.4719033,6.71897281 12.88429,6.81800604 13.5449547,9.10274924 C14.2059517,6.81800604 15.6186707,6.71897281 15.8958308,6.4976435 C15.9177644,6.48102719 15.8280363,6.40160121 15.7077341,6.36936556 C15.6445921,6.35274924 15.5006949,6.35607251 15.4996979,6.32716012 C15.4987009,6.30190332 15.6638671,6.27365559 15.8054381,6.19655589 C16.1248036,6.02175227 16.5435347,5.99483384 17.0622961,6.01012085 C17.3274924,6.01776435 17.5960121,6.04534743 17.8681873,6.10583082 C17.9323263,6.12012085 18.0592749,6.20785498 18.2054985,6.30489426 C18.4583988,6.32350453 18.7329003,6.35740181 18.9578852,6.47870091 Z M10.9222356,14.4409063 C10.9222356,15.7609063 12.0860423,16.7449245 13.5429607,16.7449245 C15.0005438,16.7449245 16.1849547,15.7552568 16.1849547,14.4352568 L16.1849547,12.9271601 L10.9212387,12.9271601 L10.9222356,14.4409063 Z M10.9175831,12.7354079 L16.1832931,12.7354079 L16.1832931,10.6035347 L10.9175831,10.6035347 L10.9175831,12.7354079 Z M17.9808459,21.5958912 C17.8090332,21.5958912 17.6697885,21.7354683 17.6697885,21.9069486 C17.6697885,22.0787613 17.8090332,22.218006 17.9808459,22.218006 C18.1533233,22.218006 18.292568,22.0787613 18.292568,21.9069486 C18.292568,21.7354683 18.1533233,21.5958912 17.9808459,21.5958912 Z M17.9808459,21.4689426 C18.2231118,21.4689426 18.4198489,21.6646828 18.4198489,21.9069486 C18.4198489,22.1485498 18.2231118,22.345287 17.9808459,22.345287 C17.7389124,22.345287 17.5425076,22.1485498 17.5425076,21.9069486 C17.5425076,21.6646828 17.7389124,21.4689426 17.9808459,21.4689426 Z M18.4294864,20.6863142 L19.1875227,21.2167069 C19.2008157,21.2260121 19.2061329,21.23 19.2117825,21.2339879 C19.266284,21.2582477 19.3460423,21.2399698 19.3968882,21.167855 C19.4477341,21.0947432 19.4370997,21.0133233 19.3955589,20.9704532 C19.389577,20.9667976 19.3832628,20.9628097 19.3776133,20.9584894 L19.3679758,20.9518429 L18.6132628,20.4234441 L18.2164653,20.3396979 L18.4294864,20.6863142 Z M19.1044411,21.3280363 L18.3497281,20.7999698 L17.9525982,20.7155589 L18.1692749,21.0681571 L18.9203323,21.5932326 L18.9312991,21.6015408 C18.9858006,21.6380967 19.0771903,21.624139 19.1330211,21.543716 C19.1841994,21.4712689 19.1738973,21.3901813 19.1320242,21.3459819 C19.1260423,21.3426586 19.1197281,21.3393353 19.1140785,21.3353474 L19.1044411,21.3280363 Z M19.2971903,21.3775529 C19.3144713,21.4589728 19.295861,21.5493656 19.2446828,21.6214804 C19.155287,21.7500906 18.9794864,21.8016012 18.8502115,21.7112085 L18.8409063,21.7038973 L18.0679154,21.1628701 L17.6701208,20.5171601 L18.2393958,20.6374622 L17.9339879,20.1406344 L18.5029305,20.2609366 L18.1975227,19.7647734 L18.9386103,19.9212991 L19.7142598,20.4639879 C19.8508459,20.5603625 19.8614804,20.7414804 19.7720846,20.8697583 C19.7209063,20.9418731 19.6424773,20.9900604 19.5607251,21.0016918 C19.578006,21.0831118 19.5590634,21.1725076 19.5082175,21.2456193 C19.4573716,21.3187311 19.3789426,21.3659215 19.2971903,21.3775529 Z M19.4749849,20.8581269 C19.5298187,20.8823867 19.609577,20.8641088 19.660423,20.7916616 C19.7169184,20.710574 19.6976435,20.6191843 19.6438066,20.5812991 L18.8827795,20.0492447 L18.48,19.9638369 L18.6933535,20.3104532 L19.4507251,20.8408459 C19.4640181,20.8498187 19.4693353,20.854139 19.4749849,20.8581269 Z M9.10939577,21.5958912 C8.93758308,21.5958912 8.79800604,21.7354683 8.79800604,21.9069486 C8.79800604,22.0787613 8.93758308,22.218006 9.10939577,22.218006 C9.28120846,22.218006 9.42111782,22.0787613 9.42111782,21.9069486 C9.42111782,21.7354683 9.28120846,21.5958912 9.10939577,21.5958912 Z M9.10939577,21.4689426 C9.35199396,21.4689426 9.54806647,21.6646828 9.54806647,21.9069486 C9.54806647,22.1485498 9.35199396,22.345287 9.10939577,22.345287 C8.86746224,22.345287 8.6710574,22.1485498 8.6710574,21.9069486 C8.6710574,21.6646828 8.86746224,21.4689426 9.10939577,21.4689426 Z M8.66108761,20.6863142 L8.87444109,20.3396979 L8.47731118,20.4234441 L7.72259819,20.9518429 L7.71296073,20.9584894 C7.70731118,20.9628097 7.70132931,20.9667976 7.69534743,20.9704532 C7.65347432,21.0133233 7.64317221,21.0947432 7.69401813,21.167855 C7.74453172,21.2399698 7.82429003,21.2582477 7.87945619,21.2339879 C7.88477341,21.23 7.89042296,21.2260121 7.89574018,21.2213595 L8.66108761,20.6863142 Z M7.98613293,21.3280363 L7.97682779,21.3353474 C7.97117825,21.3393353 7.96486405,21.3426586 7.95854985,21.3459819 C7.91667674,21.3901813 7.90703927,21.4712689 7.95755287,21.543716 C8.01338369,21.624139 8.10477341,21.6380967 8.15927492,21.6015408 L8.17057402,21.5932326 L8.92163142,21.0681571 L9.13797583,20.7155589 L8.74117825,20.7999698 L7.98613293,21.3280363 Z M7.79338369,21.3775529 C7.71196375,21.3659215 7.63320242,21.3187311 7.5823565,21.2456193 C7.53151057,21.1725076 7.51256798,21.0831118 7.53018127,21.0016918 C7.448429,20.9900604 7.36933535,20.9418731 7.31882175,20.8697583 C7.22876133,20.7414804 7.2397281,20.5603625 7.36867069,20.4699698 L8.15229607,19.9212991 L8.89338369,19.7647734 L8.5876435,20.2609366 L9.15691843,20.1406344 L8.85151057,20.6374622 L9.42012085,20.5171601 L9.02265861,21.1628701 L8.25,21.7038973 L8.24036254,21.7112085 C8.11141994,21.8016012 7.93595166,21.7500906 7.84589124,21.6214804 C7.79471299,21.5493656 7.77610272,21.4589728 7.79338369,21.3775529 Z M7.61558912,20.8581269 C7.62090634,20.854139 7.62655589,20.8498187 7.63253776,20.8458308 L8.39755287,20.3104532 L8.61090634,19.9638369 L8.20779456,20.0492447 L7.45441088,20.5763142 C7.39293051,20.6191843 7.37398792,20.710574 7.43048338,20.7916616 C7.48099698,20.8641088 7.56075529,20.8823867 7.61558912,20.8581269 Z M16.4268882,9.11570997 C16.3414804,9.08015106 16.3953172,8.95220544 16.4803927,8.98809668 C18.4075529,9.79664653 20.4201208,7.7644713 19.4281269,5.81903323 C18.5042598,4.00752266 15.9543202,4.24347432 15.2404834,5.99549849 C15.2059215,6.08090634 15.0773112,6.02873112 15.1122054,5.94332326 C15.8692447,4.08528701 18.5720544,3.83570997 19.5517523,5.75655589 C20.6012387,7.81432024 18.4736858,9.97477341 16.4268882,9.11570997 Z M12.1016616,3.21326284 L12.8965861,4.27537764 L12.9843202,4.15075529 L12.242568,3.11489426 C12.1917221,3.14413897 12.1465257,3.17637462 12.1016616,3.21326284 Z M11.7610272,3.52864048 C11.8108761,3.43226586 11.8740181,3.3378852 11.9567674,3.25114804 L11.9145619,3.19465257 C12.0312085,3.08797583 12.1438671,3.0078852 12.2851057,2.93610272 L13.0707251,4.03377644 L13.3229607,3.68283988 L13.3229607,2.75 C13.3229607,2.75 13.3269486,2.67622356 13.4203323,2.66758308 C13.4708459,2.66326284 13.5306647,2.52667674 13.4824773,2.4781571 C13.4435952,2.43927492 13.3106647,2.4907855 13.29571,2.53963746 C13.2767674,2.60344411 13.216284,2.60045317 13.216284,2.60045317 L13.0012689,2.60145015 L13.0012689,2.22160121 L13.216284,2.22259819 C13.216284,2.22259819 13.2767674,2.21960725 13.29571,2.28308157 C13.3106647,2.33160121 13.4435952,2.38344411 13.4824773,2.34489426 C13.5306647,2.29637462 13.4691843,2.16975831 13.4203323,2.15480363 C13.3512085,2.1341994 13.3581873,2.07338369 13.3581873,2.07338369 L13.3581873,1.87232628 L13.7247432,1.87232628 L13.7247432,2.07338369 C13.7247432,2.07338369 13.7317221,2.1341994 13.6625982,2.15480363 C13.6140785,2.16975831 13.5522659,2.29637462 13.6007855,2.34489426 C13.6393353,2.38344411 13.7722659,2.33160121 13.7868882,2.28308157 C13.8064955,2.21960725 13.8669789,2.22259819 13.8669789,2.22259819 L14.081994,2.22160121 L14.081994,2.60145015 L13.8669789,2.60045317 C13.8669789,2.60045317 13.8064955,2.60344411 13.7868882,2.53963746 C13.7722659,2.4907855 13.6393353,2.43927492 13.6007855,2.4781571 C13.5522659,2.52667674 13.6117523,2.66326284 13.6625982,2.66758308 C13.7609668,2.67622356 13.7706042,2.75 13.7706042,2.75 L13.7706042,3.67287009 L14.0235045,4.02513595 L14.8038066,2.93610272 C14.944713,3.0078852 15.0577039,3.08797583 15.1743505,3.19465257 L15.1318127,3.25114804 C15.2165559,3.3392145 15.2810272,3.43592145 15.3312085,3.53462236 L15.6592145,3.30830816 L15.0351057,5.06365559 L12.0654381,5.06365559 L11.4416616,3.30830816 L11.7610272,3.52864048 Z M13.4618731,3.48876133 L13.5499396,3.36646526 L13.6290332,3.47546828 L13.6290332,2.95703927 L13.4618731,2.95703927 L13.4618731,3.48876133 Z M14.1092447,4.14444109 L14.1976435,4.26839879 L14.9872508,3.21326284 C14.9423867,3.17637462 14.8971903,3.14413897 14.8460121,3.11489426 L14.1092447,4.14444109 Z M15.3896979,3.65957704 L14.1883384,4.48873112 L13.5499396,3.59975831 L12.9122054,4.48873112 L11.7111782,3.65957704 L12.1614804,4.92773414 L14.9390634,4.92773414 L15.3896979,3.65957704 Z M8.42413897,18.9406042 L7.68271903,19.4444109 L3.11422961,12.9414502 C2.99160121,12.901571 2.85169184,12.8866163 2.72441088,12.8666767 C2.69782477,12.9853172 2.65429003,13.1288822 2.6526284,13.2501813 L7.22444109,19.7581269 L6.50794562,20.2815408 C6.3989426,20.3579758 6.53719033,20.5553776 6.64586103,20.4799396 L7.41087613,19.9429003 L8.56238671,19.1373414 C8.6710574,19.061571 8.53280967,18.8645015 8.42413897,18.9406042 Z M8.34537764,18.8269486 C8.60293051,18.6461631 8.90003021,19.0708761 8.64181269,19.250997 L7.49063444,20.0568882 L6.72561934,20.5932628 C6.46740181,20.773716 6.16996979,20.3493353 6.42818731,20.1685498 L7.03268882,19.7265559 L2.53498489,13.3232931 C2.4781571,13.2408761 2.60178248,12.7819335 2.61839879,12.7108157 C2.61839879,12.7108157 2.79818731,12.7374018 2.9194864,12.759003 C2.97664653,12.7689728 3.1773716,12.7952266 3.22024169,12.8487311 L7.71794562,19.2526586 L8.34537764,18.8269486 Z M10.6626888,9.11570997 C8.61589124,9.97477341 6.48833837,7.81432024 7.53749245,5.75655589 C8.51685801,3.83570997 11.2206647,4.08528701 11.9777039,5.94332326 C12.0122659,6.02873112 11.8839879,6.08090634 11.8490937,5.99549849 C11.1349245,4.24347432 8.58531722,4.00752266 7.66111782,5.81903323 C6.66978852,7.7644713 8.6823565,9.79664653 10.608852,8.98809668 C10.6945921,8.95220544 10.748429,9.08015106 10.6626888,9.11570997 Z M23.4609063,13.7197583 L23.7327492,13.1371903 C24.1441692,12.2758006 24.9789728,12.8583686 24.3086707,13.5396375 L23.853716,13.9952568 C23.9404532,14.0756798 24.1408459,14.2830514 24.0461329,14.4183082 C23.9607251,14.5402719 23.7380665,14.454864 23.6363746,14.4083384 L19.6557704,20.0980967 L19.1652568,19.7554683 L23.145861,14.06571 C23.0680967,13.9859517 22.9109063,13.8061631 22.9966465,13.6838671 C23.0910272,13.5489426 23.3548943,13.6665861 23.4609063,13.7197583 Z M24.3222961,13.3146526 C24.6326888,12.8866163 24.1577946,12.5699094 23.8587009,13.1963444 L23.5685801,13.8177946 C23.5190634,13.9158308 23.4974622,13.8972205 23.4479456,13.8709668 C23.4120544,13.8506949 23.1674622,13.7330514 23.1112991,13.7622961 C23.0993353,13.8310876 23.2831118,14.0052266 23.3283082,14.0477644 L19.3596677,19.7212387 L19.6218731,19.9046828 L23.5905136,14.2308761 C23.6403625,14.2564653 23.8783082,14.3701208 23.931148,14.3402115 C23.9407855,14.268429 23.7540181,14.0912991 23.7161329,14.0583988 C23.6739275,14.0218429 23.6493353,14.0068882 23.7247734,13.9271299 L24.2099698,13.4419335 C24.2521752,13.3993958 24.2910574,13.3581873 24.3222961,13.3146526 L24.3222961,13.3146526 Z" id="Fill-26" fill="#ffffff"></path>
        </g>
    </g>
</svg>