<?xml version="1.0" encoding="UTF-8"?>
<svg width="70px" height="70px" viewBox="0 0 70 70" version="1.1" xmlns="http://www.w3.org/2000/svg" xmlns:xlink="http://www.w3.org/1999/xlink">
    <title>KK_Logo_CMYK_blau</title>
    <defs>
        <polygon id="path-1" points="0.0295774648 0.126197183 32.9019718 0.126197183 32.9019718 33.028169 0.0295774648 33.028169"></polygon>
        <polygon id="path-3" points="0.0295774648 0.0823239437 69.9176761 0.0823239437 69.9176761 32.9842958 0.0295774648 32.9842958"></polygon>
    </defs>
    <g id="Page-1" stroke="none" stroke-width="1" fill="none" fill-rule="evenodd">
        <g id="KK_Logo_CMYK_blau">
            <g id="Group-3" transform="translate(0.000000, 36.971831)">
                <mask id="mask-2" fill="white">
                    <use xlink:href="#path-1"></use>
                </mask>
                <g id="Clip-2"></g>
                <polyline id="Fill-1" fill="#4C4C4C" mask="url(#mask-2)" points="0 0.126197183 0 33.028169 32.9019718 33.028169 32.9019718 27.2975352 5.73161972 27.2975352 5.73161972 0.126197183 0 0.126197183"></polyline>
            </g>
            <polyline id="Fill-4" fill="#4C4C4C" points="64.1865493 37.0980282 64.1865493 64.2693662 37.0152113 64.2693662 37.0152113 70 69.9176761 70 69.9176761 37.0980282 64.1865493 37.0980282"></polyline>
            <g id="Group-8">
                <mask id="mask-4" fill="white">
                    <use xlink:href="#path-3"></use>
                </mask>
                <g id="Clip-6"></g>
                <polyline id="Fill-5" fill="#4C4C4C" mask="url(#mask-4)" points="37.0157042 0.0823239437 37.0157042 5.81394366 64.1870423 5.81394366 64.1870423 32.9842958 69.9176761 32.9842958 69.9176761 0.0823239437 37.0157042 0.0823239437"></polyline>
                <polyline id="Fill-7" fill="#4C4C4C" mask="url(#mask-4)" points="0 0.0823239437 0 32.9842958 5.73161972 32.9842958 5.73161972 5.81394366 32.9019718 5.81394366 32.9019718 0.0823239437 0 0.0823239437"></polyline>
            </g>
            <path d="M12.1578169,27.7826056 L12.1341549,27.7826056 L12.1341549,24.1307746 L9.83253521,24.1307746 L9.83253521,32.9847887 L12.1341549,32.9847887 L12.1341549,29.1446479 L12.1578169,29.1446479 L15.1283803,32.9847887 L18.1107746,32.9847887 L14.2711268,28.3228873 L17.7938028,24.1307746 L14.9405634,24.1307746 L12.1578169,27.7826056 Z M22.890493,23.8374648 C20.3419014,23.8374648 17.9934507,25.7161268 17.9934507,28.3933803 C17.9934507,31.2584507 20.0485915,33.2780986 22.890493,33.2780986 C25.7319014,33.2780986 27.7870423,31.2584507 27.7870423,28.3933803 C27.7870423,25.7161268 25.4385915,23.8374648 22.890493,23.8374648 L22.890493,23.8374648 Z M22.890493,26.0680986 C24.2638732,26.0680986 25.3912676,27.183662 25.3912676,28.4052113 C25.3912676,29.9314085 24.2638732,31.0469718 22.890493,31.0469718 C21.5161268,31.0469718 20.3892254,29.9314085 20.3892254,28.4052113 C20.3892254,27.183662 21.5161268,26.0680986 22.890493,26.0680986 L22.890493,26.0680986 Z M21.3988028,21.1128873 C20.7530282,21.1128873 20.2364085,21.629507 20.2364085,22.2639437 C20.2364085,22.9097183 20.7530282,23.414507 21.3988028,23.414507 C22.0327465,23.414507 22.5498592,22.9097183 22.5498592,22.2639437 C22.5498592,21.629507 22.0327465,21.1128873 21.3988028,21.1128873 L21.3988028,21.1128873 Z M24.4048592,21.1128873 C23.7590845,21.1128873 23.2424648,21.629507 23.2424648,22.2639437 C23.2424648,22.9097183 23.7590845,23.414507 24.4048592,23.414507 C25.0388028,23.414507 25.5559155,22.9097183 25.5559155,22.2639437 C25.5559155,21.629507 25.0388028,21.1128873 24.4048592,21.1128873 L24.4048592,21.1128873 Z M31.3333803,24.1307746 L29.0317606,24.1307746 L29.0317606,32.9847887 L34.0924648,32.9847887 L34.0924648,31.0356338 L31.3333803,31.0356338 L31.3333803,24.1307746 Z M35.49,32.9847887 L37.7916197,32.9847887 L37.7916197,27.5592958 L37.8147887,27.5592958 L42.0305634,32.9847887 L44.3321831,32.9847887 L44.3321831,24.1307746 L42.0305634,24.1307746 L42.0305634,29.5439437 L42.0069014,29.5439437 L37.7916197,24.1307746 L35.49,24.1307746 L35.49,32.9847887 Z M51.0487324,26.0799296 L51.0487324,24.1307746 L46.0111972,24.1307746 L46.0111972,32.9847887 L51.0487324,32.9847887 L51.0487324,31.0356338 L48.3128169,31.0356338 L48.3128169,29.5089437 L50.9077465,29.5089437 L50.9077465,27.5592958 L48.3128169,27.5592958 L48.3128169,26.0799296 L51.0487324,26.0799296 Z M57.224507,29.3561268 C58.4810563,29.1333099 59.1623239,28.0764085 59.1623239,26.8548592 C59.1623239,24.9643662 57.8352817,24.1307746 56.0857746,24.1307746 L52.6449296,24.1307746 L52.6449296,32.9847887 L54.9465493,32.9847887 L54.9465493,29.5789437 L54.9702113,29.5789437 L57.1426761,32.9847887 L60.0077465,32.9847887 L57.224507,29.3561268 Z M54.9465493,25.8921127 L55.1698592,25.8921127 C55.9211268,25.8921127 56.7670423,26.0330986 56.7670423,26.9958451 C56.7670423,27.9585915 55.9211268,28.0995775 55.1698592,28.0995775 L54.9465493,28.0995775 L54.9465493,25.8921127 L54.9465493,25.8921127 Z" id="Fill-9" fill="#4C4C4C"></path>
            <path d="M9.76450704,42.0507746 L11.515,42.0507746 L11.4755634,39.9778873 L11.515,39.9778873 C11.5544366,40.1809859 11.7121831,40.3648592 11.8166901,40.5551408 L12.67,42.0507746 L14.7561972,42.0507746 L13.043662,39.5120423 L14.5920423,37.1049296 L12.6305634,37.1049296 L11.7649296,38.6922535 C11.666338,38.8697183 11.5544366,39.0466901 11.515,39.2497887 L11.4755634,39.2497887 L11.515,37.1049296 L9.76450704,37.1049296 L9.76450704,42.0507746 Z M18.9423944,37.1049296 L18.9423944,39.8600704 C18.9423944,40.2475352 18.9290845,40.588169 18.4504225,40.588169 C17.9707746,40.588169 17.9574648,40.2475352 17.9574648,39.8600704 L17.9574648,37.1049296 L16.1611268,37.1049296 L16.1611268,40.0311268 C16.1611268,41.4735211 17.0657042,42.1291549 18.4504225,42.1291549 C19.8341549,42.1291549 20.7392254,41.4735211 20.7392254,40.0311268 L20.7392254,37.1049296 L18.9423944,37.1049296 Z M22.5833803,42.0507746 L25.8896479,42.0507746 L25.8896479,40.4639437 L24.3802113,40.4639437 L24.3802113,37.1049296 L22.5833803,37.1049296 L22.5833803,42.0507746 Z M26.8938028,38.7119718 L27.8841549,38.6661268 L27.8841549,42.0507746 L29.6809859,42.0507746 L29.6809859,38.6661268 L30.671831,38.7119718 L30.671831,37.1039437 L26.8938028,37.1039437 L26.8938028,38.7119718 Z M34.9497183,37.1049296 L34.9497183,39.8600704 C34.9497183,40.2475352 34.9369014,40.588169 34.4572535,40.588169 C33.9780986,40.588169 33.9652817,40.2475352 33.9652817,39.8600704 L33.9652817,37.1049296 L32.1679577,37.1049296 L32.1679577,40.0311268 C32.1679577,41.4735211 33.0730282,42.1291549 34.4572535,42.1291549 C35.8419718,42.1291549 36.7465493,41.4735211 36.7465493,40.0311268 L36.7465493,37.1049296 L34.9497183,37.1049296 Z M38.5907042,42.0507746 L40.3485915,42.0507746 L40.3485915,40.4629577 L40.3811268,40.4629577 L41.1688732,42.0507746 L43.2412676,42.0507746 L42.1661268,40.4437324 C42.0675352,40.2988028 41.9561268,40.2204225 41.8644366,40.1484507 L41.8644366,40.1090141 C42.5333803,39.8861972 42.8217606,39.5711972 42.8217606,38.8233803 C42.8217606,37.5766901 41.8777465,37.1049296 40.7621831,37.1049296 L38.5907042,37.1049296 L38.5907042,42.0507746 Z M40.3485915,38.4551408 L40.4861268,38.4551408 C40.7947183,38.4551408 41.0643662,38.5014789 41.0643662,38.8825352 C41.0643662,39.2502817 40.7685915,39.2961268 40.4733099,39.2961268 L40.3485915,39.2961268 L40.3485915,38.4551408 Z M44.6067606,42.0507746 L46.3641549,42.0507746 L46.3641549,40.4629577 L46.3971831,40.4629577 L47.1854225,42.0507746 L49.2573239,42.0507746 L48.1816901,40.4437324 C48.0830986,40.2988028 47.9716901,40.2204225 47.88,40.1484507 L47.88,40.1090141 C48.5489437,39.8861972 48.8373239,39.5711972 48.8373239,38.8233803 C48.8373239,37.5766901 47.8933099,37.1049296 46.7777465,37.1049296 L44.6067606,37.1049296 L44.6067606,42.0507746 Z M46.3641549,38.4551408 L46.5021831,38.4551408 C46.8112676,38.4551408 47.0799296,38.5014789 47.0799296,38.8825352 C47.0799296,39.2502817 46.7846479,39.2961268 46.4888732,39.2961268 L46.3641549,39.2961268 L46.3641549,38.4551408 Z M52.2229577,41.4340845 L53.5805634,41.4340845 L53.7452113,42.0507746 L55.6470423,42.0507746 L53.8827465,37.1049296 L51.8951408,37.1049296 L50.1766901,42.0507746 L52.0790141,42.0507746 L52.2229577,41.4340845 Z M52.5443662,40.2603521 L52.8726761,38.7504225 L52.9382394,38.7504225 C52.9707746,38.9609155 53.0038028,39.1773239 53.0560563,39.3873239 L53.2665493,40.2603521 L52.5443662,40.2603521 Z M56.2055634,38.7119718 L57.1964085,38.6661268 L57.1964085,42.0507746 L58.9932394,42.0507746 L58.9932394,38.6661268 L59.9835915,38.7119718 L59.9835915,37.1039437 L56.2055634,37.1039437 L56.2055634,38.7119718 L56.2055634,38.7119718 Z" id="Fill-10" fill="#4C4C4C" opacity="0.669596354"></path>
        </g>
    </g>
</svg>