<?xml version="1.0" encoding="UTF-8"?>
<svg width="200px" height="15px" viewBox="0 0 200 15" version="1.1" xmlns="http://www.w3.org/2000/svg" xmlns:xlink="http://www.w3.org/1999/xlink">
    <title>niehlerfreiheit</title>
    <g id="Page-1" stroke="none" stroke-width="1" fill="none" fill-rule="evenodd">
        <g id="Group">
            <rect id="Rectangle" x="0" y="0.116731518" width="200" height="14.5525292"></rect>
            <path d="M14.922179,0.79766537 L17.5486381,0.79766537 L22.4708171,7.76264591 C22.6264591,7.9766537 22.8599222,8.38521401 23.2101167,9.0077821 L23.307393,8.94941634 L23.2490272,7.85992218 L23.2490272,0.778210117 L25.8754864,0.778210117 L25.8754864,13.618677 L23.2490272,13.618677 L18.307393,6.59533074 C18.07393,6.26459144 17.8210117,5.85603113 17.5875486,5.36964981 L17.4902724,5.42801556 C17.5291829,5.97276265 17.5486381,6.34241245 17.5486381,6.55642023 L17.5486381,13.618677 L14.922179,13.618677 L14.922179,0.79766537 Z" id="Path" fill="#ffffff" fill-rule="nonzero"></path>
            <path d="M28.463035,0.116731518 L31.0311284,0.116731518 L31.0311284,2.54863813 L28.463035,2.54863813 L28.463035,0.116731518 Z M28.463035,3.79377432 L31.0311284,3.79377432 L31.0311284,13.618677 L28.463035,13.618677 L28.463035,3.79377432 Z" id="Shape" fill="#ffffff" fill-rule="nonzero"></path>
            <path d="M34.1828794,12.5875486 C33.4046693,11.7509728 33.0155642,10.4669261 33.0155642,8.69649805 C33.0155642,6.94552529 33.4046693,5.64202335 34.1828794,4.80544747 C34.9610895,3.9688716 36.1478599,3.56031128 37.7237354,3.56031128 C39.1828794,3.56031128 40.2723735,3.98832685 40.9922179,4.82490272 C41.7120623,5.6614786 42.0817121,6.96498054 42.0817121,8.69649805 L42.0817121,9.29961089 L35.6031128,9.29961089 C35.6225681,10.1750973 35.7976654,10.8171206 36.1284047,11.2256809 C36.459144,11.6342412 36.9844358,11.848249 37.7626459,11.848249 C38.307393,11.848249 38.7354086,11.692607 39.0661479,11.4007782 C39.3968872,11.1089494 39.5525292,10.6809339 39.5525292,10.1361868 L42.0817121,10.1361868 C42.0817121,11.3618677 41.692607,12.2957198 40.8949416,12.9182879 C40.0972763,13.540856 39.0466926,13.8521401 37.7431907,13.8521401 C36.1478599,13.8326848 34.9610895,13.4241245 34.1828794,12.5875486 Z M39.4163424,7.60700389 C39.4163424,6.24513619 38.8521401,5.56420233 37.7237354,5.56420233 C37.0817121,5.56420233 36.5953307,5.73929961 36.2645914,6.07003891 C35.9338521,6.40077821 35.7392996,6.92607004 35.6614786,7.60700389 L39.4163424,7.60700389 Z" id="Shape" fill="#ffffff" fill-rule="nonzero"></path>
            <path d="M44.0466926,0.116731518 L46.614786,0.116731518 L46.614786,4.94163424 L46.7509728,4.94163424 C47.4902724,4.02723735 48.463035,3.57976654 49.6303502,3.57976654 C50.6420233,3.57976654 51.4396887,3.85214008 52.0038911,4.39688716 C52.5875486,4.94163424 52.8793774,5.81712062 52.8793774,7.0233463 L52.8793774,13.618677 L50.311284,13.618677 L50.311284,7.56809339 C50.311284,6.96498054 50.1750973,6.51750973 49.8832685,6.24513619 C49.5914397,5.97276265 49.1828794,5.83657588 48.618677,5.83657588 C48.0544747,5.83657588 47.5680934,6.0311284 47.1984436,6.43968872 C46.8093385,6.84824903 46.6342412,7.3540856 46.6342412,7.93774319 L46.6342412,13.618677 L44.0661479,13.618677 L44.0661479,0.116731518 L44.0466926,0.116731518 Z" id="Path" fill="#ffffff" fill-rule="nonzero"></path>
            <polygon id="Path" fill="#ffffff" fill-rule="nonzero" points="55.4669261 0.116731518 58.0350195 0.116731518 58.0350195 13.618677 55.4669261 13.618677"></polygon>
            <path d="M61.1673152,12.5875486 C60.3891051,11.7509728 60,10.4669261 60,8.69649805 C60,6.94552529 60.3891051,5.64202335 61.1673152,4.80544747 C61.9455253,3.9688716 63.1322957,3.56031128 64.7081712,3.56031128 C66.1673152,3.56031128 67.2568093,3.98832685 67.9766537,4.82490272 C68.6964981,5.6614786 69.0661479,6.96498054 69.0661479,8.69649805 L69.0661479,9.29961089 L62.6070039,9.29961089 C62.6264591,10.1750973 62.8015564,10.8171206 63.1322957,11.2256809 C63.463035,11.6342412 63.9883268,11.848249 64.766537,11.848249 C65.311284,11.848249 65.7392996,11.692607 66.0700389,11.4007782 C66.4007782,11.1089494 66.5564202,10.6809339 66.5564202,10.1361868 L69.0856031,10.1361868 C69.0856031,11.3618677 68.6964981,12.2957198 67.8988327,12.9182879 C67.1011673,13.540856 66.0505837,13.8521401 64.7470817,13.8521401 C63.1322957,13.8326848 61.9455253,13.4241245 61.1673152,12.5875486 Z M66.4007782,7.60700389 C66.4007782,6.24513619 65.8365759,5.56420233 64.7081712,5.56420233 C64.0661479,5.56420233 63.5797665,5.73929961 63.2490272,6.07003891 C62.9182879,6.40077821 62.7237354,6.92607004 62.6459144,7.60700389 L66.4007782,7.60700389 Z" id="Shape" fill="#ffffff" fill-rule="nonzero"></path>
            <path d="M71.0505837,3.79377432 L73.229572,3.79377432 L73.4435798,5.38910506 L73.5797665,5.38910506 C73.7937743,4.82490272 74.0661479,4.37743191 74.3968872,4.06614786 C74.7276265,3.73540856 75.1750973,3.57976654 75.7198444,3.57976654 C76.0894942,3.57976654 76.4007782,3.6381323 76.692607,3.75486381 L76.692607,6.14785992 L75.9922179,6.14785992 C75.155642,6.14785992 74.5525292,6.38132296 74.1828794,6.82879377 C73.8132296,7.27626459 73.618677,7.9766537 73.618677,8.89105058 L73.618677,13.618677 L71.0505837,13.618677 L71.0505837,3.79377432 Z" id="Path" fill="#ffffff" fill-rule="nonzero"></path>
            <polygon id="Path" fill="#ffffff" fill-rule="nonzero" points="83.4241245 0.79766537 92.7042802 0.79766537 92.7042802 3.09338521 86.1284047 3.09338521 86.1284047 6.24513619 92.0233463 6.24513619 92.0233463 8.56031128 86.1478599 8.56031128 86.1478599 13.618677 83.4435798 13.618677 83.4435798 0.79766537"></polygon>
            <path d="M94.9027237,3.79377432 L97.0817121,3.79377432 L97.2957198,5.38910506 L97.4319066,5.38910506 C97.6459144,4.82490272 97.9182879,4.37743191 98.2490272,4.06614786 C98.5797665,3.73540856 99.0272374,3.57976654 99.5719844,3.57976654 C99.9416342,3.57976654 100.252918,3.6381323 100.544747,3.75486381 L100.544747,6.14785992 L99.844358,6.14785992 C99.0077821,6.14785992 98.4046693,6.38132296 98.0350195,6.82879377 C97.6653696,7.27626459 97.4708171,7.9766537 97.4708171,8.89105058 L97.4708171,13.618677 L94.9027237,13.618677 L94.9027237,3.79377432 L94.9027237,3.79377432 Z" id="Path" fill="#ffffff" fill-rule="nonzero"></path>
            <path d="M102.684825,12.5875486 C101.906615,11.7509728 101.51751,10.4669261 101.51751,8.69649805 C101.51751,6.94552529 101.906615,5.64202335 102.684825,4.80544747 C103.463035,3.9688716 104.649805,3.56031128 106.225681,3.56031128 C107.684825,3.56031128 108.774319,3.98832685 109.494163,4.82490272 C110.214008,5.6614786 110.583658,6.96498054 110.583658,8.69649805 L110.583658,9.29961089 L104.124514,9.29961089 C104.143969,10.1750973 104.319066,10.8171206 104.649805,11.2256809 C104.980545,11.6342412 105.505837,11.848249 106.284047,11.848249 C106.828794,11.848249 107.256809,11.692607 107.587549,11.4007782 C107.918288,11.1089494 108.07393,10.6809339 108.07393,10.1361868 L110.603113,10.1361868 C110.603113,11.3618677 110.214008,12.2957198 109.416342,12.9182879 C108.618677,13.540856 107.568093,13.8521401 106.264591,13.8521401 C104.649805,13.8326848 103.463035,13.4241245 102.684825,12.5875486 Z M107.937743,7.60700389 C107.937743,6.24513619 107.373541,5.56420233 106.245136,5.56420233 C105.603113,5.56420233 105.116732,5.73929961 104.785992,6.07003891 C104.455253,6.40077821 104.2607,6.92607004 104.182879,7.60700389 L107.937743,7.60700389 Z" id="Shape" fill="#ffffff" fill-rule="nonzero"></path>
            <path d="M112.548638,0.116731518 L115.116732,0.116731518 L115.116732,2.54863813 L112.548638,2.54863813 L112.548638,0.116731518 Z M112.548638,3.79377432 L115.116732,3.79377432 L115.116732,13.618677 L112.548638,13.618677 L112.548638,3.79377432 Z" id="Shape" fill="#ffffff" fill-rule="nonzero"></path>
            <path d="M117.743191,0.116731518 L120.311284,0.116731518 L120.311284,4.94163424 L120.447471,4.94163424 C121.18677,4.02723735 122.159533,3.57976654 123.326848,3.57976654 C124.338521,3.57976654 125.136187,3.85214008 125.700389,4.39688716 C126.284047,4.94163424 126.575875,5.81712062 126.575875,7.0233463 L126.575875,13.618677 L124.007782,13.618677 L124.007782,7.56809339 C124.007782,6.96498054 123.871595,6.51750973 123.579767,6.24513619 C123.287938,5.97276265 122.879377,5.83657588 122.315175,5.83657588 C121.750973,5.83657588 121.264591,6.0311284 120.894942,6.43968872 C120.505837,6.84824903 120.330739,7.3540856 120.330739,7.93774319 L120.330739,13.618677 L117.762646,13.618677 L117.762646,0.116731518 L117.743191,0.116731518 Z" id="Path" fill="#ffffff" fill-rule="nonzero"></path>
            <path d="M129.669261,12.5875486 C128.891051,11.7509728 128.501946,10.4669261 128.501946,8.69649805 C128.501946,6.94552529 128.891051,5.64202335 129.669261,4.80544747 C130.447471,3.9688716 131.634241,3.56031128 133.210117,3.56031128 C134.669261,3.56031128 135.758755,3.98832685 136.478599,4.82490272 C137.198444,5.6614786 137.568093,6.96498054 137.568093,8.69649805 L137.568093,9.29961089 L131.108949,9.29961089 C131.128405,10.1750973 131.303502,10.8171206 131.634241,11.2256809 C131.964981,11.6342412 132.490272,11.848249 133.268482,11.848249 C133.81323,11.848249 134.241245,11.692607 134.571984,11.4007782 C134.902724,11.1089494 135.058366,10.6809339 135.058366,10.1361868 L137.587549,10.1361868 C137.587549,11.3618677 137.198444,12.2957198 136.400778,12.9182879 C135.603113,13.540856 134.552529,13.8521401 133.249027,13.8521401 C131.634241,13.8326848 130.447471,13.4241245 129.669261,12.5875486 Z M134.922179,7.60700389 C134.922179,6.24513619 134.357977,5.56420233 133.229572,5.56420233 C132.587549,5.56420233 132.101167,5.73929961 131.770428,6.07003891 C131.439689,6.40077821 131.245136,6.92607004 131.167315,7.60700389 L134.922179,7.60700389 Z" id="Shape" fill="#ffffff" fill-rule="nonzero"></path>
            <path d="M139.533074,0.116731518 L142.101167,0.116731518 L142.101167,2.54863813 L139.533074,2.54863813 L139.533074,0.116731518 Z M139.533074,3.79377432 L142.101167,3.79377432 L142.101167,13.618677 L139.533074,13.618677 L139.533074,3.79377432 Z" id="Shape" fill="#ffffff" fill-rule="nonzero"></path>
            <path d="M145.389105,13.0933852 C145,12.5875486 144.785992,11.9649805 144.785992,11.2062257 L144.785992,5.87548638 L143.618677,5.87548638 L143.618677,3.77431907 L144.844358,3.77431907 L145.272374,1.01167315 L147.354086,1.01167315 L147.354086,3.77431907 L149.046693,3.77431907 L149.046693,5.87548638 L147.354086,5.87548638 L147.354086,10.9338521 C147.354086,11.4785992 147.626459,11.7315175 148.151751,11.7315175 L149.046693,11.7315175 L149.046693,13.5214008 C148.832685,13.5992218 148.579767,13.6575875 148.249027,13.7354086 C147.918288,13.8132296 147.626459,13.8326848 147.354086,13.8326848 C146.459144,13.8326848 145.797665,13.5992218 145.389105,13.0933852 Z" id="Path" fill="#ffffff" fill-rule="nonzero"></path>
            <path d="M156.673152,12.5875486 C155.894942,11.7509728 155.505837,10.4669261 155.505837,8.69649805 C155.505837,6.94552529 155.894942,5.64202335 156.673152,4.80544747 C157.451362,3.9688716 158.638132,3.56031128 160.214008,3.56031128 C161.673152,3.56031128 162.762646,3.98832685 163.48249,4.82490272 C164.202335,5.6614786 164.571984,6.96498054 164.571984,8.69649805 L164.571984,9.29961089 L158.11284,9.29961089 C158.132296,10.1750973 158.307393,10.8171206 158.638132,11.2256809 C158.968872,11.6342412 159.494163,11.848249 160.272374,11.848249 C160.817121,11.848249 161.245136,11.692607 161.575875,11.4007782 C161.906615,11.1089494 162.062257,10.6809339 162.062257,10.1361868 L164.59144,10.1361868 C164.59144,11.3618677 164.202335,12.2957198 163.404669,12.9182879 C162.607004,13.540856 161.55642,13.8521401 160.252918,13.8521401 C158.618677,13.8326848 157.451362,13.4241245 156.673152,12.5875486 Z M161.906615,7.60700389 C161.906615,6.24513619 161.342412,5.56420233 160.214008,5.56420233 C159.571984,5.56420233 159.085603,5.73929961 158.754864,6.07003891 C158.424125,6.40077821 158.229572,6.92607004 158.151751,7.60700389 L161.906615,7.60700389 Z" id="Shape" fill="#ffffff" fill-rule="nonzero"></path>
            <polygon id="Path" fill="#ffffff" fill-rule="nonzero" points="166.51751 11.0505837 169.085603 11.0505837 169.085603 13.618677 166.51751 13.618677"></polygon>
            <path d="M170.486381,0.79766537 L173.424125,0.79766537 L175.836576,7.82101167 C175.972763,8.21011673 176.245136,9.10505837 176.673152,10.4669261 L176.770428,10.4669261 C177.159533,9.10505837 177.431907,8.21011673 177.568093,7.82101167 L179.961089,0.79766537 L182.782101,0.79766537 L178.132296,13.618677 L175.097276,13.618677 L170.486381,0.79766537 Z" id="Path" fill="#ffffff" fill-rule="nonzero"></path>
            <polygon id="Path" fill="#ffffff" fill-rule="nonzero" points="182.451362 11.0505837 185.019455 11.0505837 185.019455 13.618677 182.451362 13.618677"></polygon>
        </g>
    </g>
</svg>