<?xml version="1.0" encoding="UTF-8"?>
<svg width="91px" height="126px" viewBox="0 0 91 126" version="1.1" xmlns="http://www.w3.org/2000/svg" xmlns:xlink="http://www.w3.org/1999/xlink">
    <title>Logo Kunstzentrum Wachsfabrik rotrot2020 - 30x30cm vektorisiert 2</title>
    <g id="Page-1" stroke="none" stroke-width="1" fill="none" fill-rule="evenodd">
        <g id="Logo-Kunstzentrum-Wachsfabrik-rotrot2020---30x30cm-vektorisiert">
            <g id="rechts_1_">
                <g id="Turm_xA0_Bild_1_" fill="#4C4C4C">
                    <polygon id="Polygon" points="17.5998152 5.40053382e-14 21.4638158 125.869737 -2.27373675e-13 125.869737 4.06706251 5.40053382e-14"></polygon>
                </g>
                <g id="Wachsfabrik-Clipped" transform="translate(0.148026, 20.723684)" fill="#FFFFFF" fill-rule="nonzero">
                    <g id="Group">
                        <polygon id="Path" points="7.99963816 95.7567434 8.00008224 95.7286184 0.118273026 93.2639803 0.144177632 91.7335362 8.10458882 89.5507401 8.10503289 89.5227632 0.220855263 87.198602 0.245723684 85.7242599 10.1400987 88.812977 10.1155263 90.2591941 2.08302632 92.5387993 2.08258224 92.5669243 10.0333717 95.1171217 10.0087993 96.5633388 0.0158388158 99.3154441 0.0411513158 97.813125"></polygon>
                        <path d="M10.2163322,84.3064638 L10.1902796,85.8508224 L0.319292763,81.3719901 L0.340756579,80.1082895 L10.3568092,76.0085526 L10.3301645,77.5808882 L7.86922697,78.5506086 L7.78944079,83.2682072 L10.2163322,84.3064638 Z M6.57577303,82.7560362 L6.63868421,79.0353947 L1.94447368,80.8096382 L6.57577303,82.7560362 Z" id="Shape"></path>
                        <path d="M8.97320724,66.4349507 C10.0135362,67.2248191 10.7362007,68.5151645 10.7067434,70.256102 C10.6552303,73.3027796 8.44120066,75.4564145 5.37942434,75.4044572 C2.27546053,75.3520559 0.207236842,73.0418092 0.258305921,70.0231086 C0.281398026,68.6612664 0.840049342,67.1959539 1.86350329,66.4830592 L2.68771382,67.5923684 C2.00546053,68.0582072 1.49743421,69.018898 1.48011513,70.0438322 C1.44118421,72.3465296 3.22815789,73.8515132 5.40503289,73.8882237 C7.63815789,73.9261184 9.43238487,72.5098026 9.47101974,70.2211678 C9.48981908,69.1120066 9.04263158,68.1353289 8.19592105,67.5312336 L8.97320724,66.4349507 Z" id="Path"></path>
                        <polygon id="Path" points="0.598322368 64.8749013 0.621858553 63.4849342 4.77902961 63.5553947 4.86399671 58.5288651 0.706825658 58.4584046 0.730657895 57.054523 10.6744737 57.2226809 10.6506414 58.6267105 6.10016447 58.5495888 6.01519737 63.5761184 10.5656743 63.6532401 10.5421382 65.0432072"></polygon>
                        <path d="M2.69496711,49.7288487 C2.14046053,50.1126809 1.74907895,50.8223191 1.73516447,51.6506743 C1.71991776,52.5491941 2.19389803,53.5964803 3.31741776,53.6154276 C4.39889803,53.6336349 4.70930921,52.7260855 5.09358553,51.6089309 C5.53751645,50.2823191 6.06996711,48.7042105 8.05026316,48.7378125 C10.1149342,48.7727467 11.0415789,50.4598026 11.0116776,52.2287171 C10.9905099,53.4783553 10.4775987,54.7336184 9.50980263,55.4758224 L8.61513158,54.3792434 C9.31115132,53.9276151 9.80289474,53.0931908 9.8184375,52.1804605 C9.83398026,51.2538158 9.33246711,50.1781086 8.15269737,50.158125 C6.94480263,50.1375493 6.60330592,51.2273191 6.18868421,52.4843586 C5.7740625,53.74125 5.17603618,55.0514309 3.35013158,55.0206414 C1.36983553,54.9870395 0.542960526,53.2034704 0.570789474,51.5606743 C0.590180921,50.4094737 1.05794408,49.3359868 1.75662829,48.7298191 L2.69496711,49.7288487 Z" id="Path"></path>
                        <polygon id="Path" points="10.8738651 45.4294243 10.8503289 46.8195395 0.906513158 46.6512336 1.01146382 40.4455263 2.23342105 40.46625 2.15200658 45.2819901 5.24190789 45.3343914 5.31814145 40.8274342 6.51182566 40.8475658 6.43559211 45.354375"></polygon>
                        <path d="M10.9792599,39.1954441 L10.9530592,40.7399507 L1.08236842,36.2612664 L1.10383224,34.9975658 L11.1197368,30.8973849 L11.0930921,32.4698684 L8.63215461,33.4395888 L8.55236842,38.1571875 L10.9792599,39.1954441 Z M7.33870066,37.6451645 L7.40161184,33.924523 L2.70740132,35.6989145 L7.33870066,37.6451645 Z" id="Shape"></path>
                        <path d="M1.19738487,29.4519079 L1.25541118,26.0259868 C1.28072368,24.5236678 1.92611842,22.9195066 3.82203947,22.9514803 C4.91758224,22.9699836 5.69220395,23.6852467 5.95554276,24.7289803 L5.98366776,24.7294243 C6.15981908,23.4543257 7.04620066,22.5424836 8.43661184,22.5658717 C10.3467434,22.5981414 11.2316447,24.2703947 11.1965625,26.3482401 L11.1412007,29.6200658 L1.19738487,29.4519079 Z M5.42027961,28.1329934 L5.45092105,26.3217434 C5.46898026,25.2546217 5.02046053,24.3623191 3.93912829,24.3441118 C2.87171053,24.3260526 2.43592105,25.1752796 2.41356908,26.4950822 L2.38662829,28.0816283 L5.42027961,28.1329934 Z M9.98496711,28.2101151 L10.0144243,26.4690296 C10.0344079,25.2895559 9.69098684,23.9918092 8.34276316,23.9690132 C7.17705592,23.9493257 6.65748355,24.7690954 6.63172697,26.285477 L6.60019737,28.1528289 L9.98496711,28.2101151 Z" id="Shape"></path>
                        <path d="M11.3172039,19.2163322 L11.2936678,20.6062993 L1.34985197,20.4381414 L1.40373355,17.2509868 C1.43629934,15.3273849 2.19389803,13.725148 4.21638158,13.7593421 C5.67710526,13.7840625 6.58717105,14.7965625 6.80195724,16.2186513 L11.4135691,13.5158388 L11.385148,15.2006743 L6.91830592,17.6530263 L6.89314145,19.1412829 L11.3172039,19.2163322 Z M5.72728618,19.1217434 L5.754375,17.5211349 C5.77643092,16.2153947 5.38638158,15.1835033 4.19269737,15.1633717 C2.99886513,15.1430921 2.60245066,16.1618092 2.58202303,17.3691118 L2.55330592,19.0680099 L5.72728618,19.1217434 Z" id="Shape"></path>
                        <polygon id="Path" points="11.4630099 10.5957237 11.4394737 11.9856908 1.49565789 11.8175329 1.51919408 10.4275658"></polygon>
                        <polygon id="Path" points="5.96560855 6.69685855 5.96605263 6.66873355 1.65907895 2.15792763 1.69164474 0.234325658 6.16041118 5.14110197 11.6403454 0.107615132 11.6065954 2.10138158 6.38733553 6.67583882 6.38689145 6.70396382 11.5274013 6.79085526 11.5038651 8.18097039 1.56004934 8.0128125 1.58358553 6.62269737"></polygon>
                    </g>
                </g>
            </g>
            <g id="KunstZentrum_x0D_Wachsfabrik" transform="translate(23.832237, 100.361842)" fill="#4C4C4C" fill-rule="nonzero">
                <g id="Group">
                    <polygon id="Path" points="1.50838816 2.83588816 1.52511513 2.83588816 4.16235197 0.226332237 5.30570724 0.226332237 2.43473684 2.93625 5.48097039 6.14797697 4.29587171 6.14797697 1.52511513 3.08664474 1.50838816 3.08664474 1.50838816 6.14797697 0.682105263 6.14797697 0.682105263 0.226332237 1.50838816 0.226332237"></polygon>
                    <path d="M6.11748355,3.95659539 L6.11748355,0.226332237 L6.94376645,0.226332237 L6.94376645,3.90641447 C6.94376645,4.71759868 7.31101974,5.55409539 8.41263158,5.55409539 C9.51424342,5.55409539 9.88149671,4.71774671 9.88149671,3.90641447 L9.88149671,0.226332237 L10.7077796,0.226332237 L10.7077796,3.95659539 C10.7077796,5.16922697 9.97342105,6.29837171 8.41263158,6.29837171 C6.85184211,6.29837171 6.11748355,5.16922697 6.11748355,3.95659539 Z" id="Path"></path>
                    <polygon id="Path" points="16.244852 4.96021382 16.2615789 4.96021382 16.2615789 0.226332237 17.0878618 0.226332237 17.0878618 6.14797697 16.0445724 6.14797697 12.9232895 1.31358553 12.9065625 1.31358553 12.9065625 6.14797697 12.0802796 6.14797697 12.0802796 0.226332237 13.156875 0.226332237"></polygon>
                    <path d="M21.5311678,1.321875 C21.2974342,0.995773026 20.8718586,0.769884868 20.379523,0.769884868 C19.8454441,0.769884868 19.2277303,1.06282895 19.2277303,1.73175987 C19.2277303,2.37582237 19.7702467,2.55138158 20.4378454,2.76898026 C21.2306743,3.01988487 22.17375,3.32097039 22.17375,4.50029605 C22.17375,5.72980263 21.1806414,6.29837171 20.1290625,6.29837171 C19.3862664,6.29837171 18.6351809,6.00557566 18.1844408,5.43700658 L18.827023,4.89330592 C19.1025,5.30319079 19.603273,5.58740132 20.1457895,5.58740132 C20.6965954,5.58740132 21.3308882,5.27802632 21.3308882,4.57534539 C21.3308882,3.85623355 20.6800164,3.66379934 19.9287829,3.42962171 C19.1776974,3.19544408 18.3931579,2.85246711 18.3931579,1.76521382 C18.3931579,0.585888158 19.4447368,0.0756414474 20.4212664,0.0756414474 C21.1055921,0.0756414474 21.7483224,0.343421053 22.1154276,0.753157895 L21.5311678,1.321875 Z" id="Path"></path>
                    <polygon id="Path" points="25.2519572 6.14797697 24.4256743 6.14797697 24.4256743 0.953881579 22.5312336 0.953881579 22.5312336 0.226332237 27.1465461 0.226332237 27.1465461 0.953881579 25.2521053 0.953881579 25.2521053 6.14797697"></polygon>
                    <polygon id="Path" points="31.6684539 0.953881579 28.3301645 5.41184211 31.7186349 5.41184211 31.7186349 6.14797697 27.3286184 6.14797697 27.3286184 5.42027961 30.6586184 0.953881579 27.3953783 0.953881579 27.3953783 0.226332237 31.6684539 0.226332237"></polygon>
                    <polygon id="Path" points="33.4820724 5.41184211 36.5700493 5.41184211 36.5700493 6.14797697 32.6557895 6.14797697 32.6557895 0.226332237 36.4448191 0.226332237 36.4448191 0.953881579 33.4820724 0.953881579 33.4820724 2.72708882 36.2695559 2.72708882 36.2695559 3.43805921 33.4820724 3.43805921"></polygon>
                    <polygon id="Path" points="41.8534046 4.96021382 41.8701316 4.96021382 41.8701316 0.226332237 42.6964145 0.226332237 42.6964145 6.14797697 41.652977 6.14797697 38.5316941 1.31358553 38.5149671 1.31358553 38.5149671 6.14797697 37.6886842 6.14797697 37.6886842 0.226332237 38.7652796 0.226332237"></polygon>
                    <polygon id="Path" points="46.2715461 6.14797697 45.4455592 6.14797697 45.4455592 0.953881579 43.5509704 0.953881579 43.5509704 0.226332237 48.1661349 0.226332237 48.1661349 0.953881579 46.2715461 0.953881579"></polygon>
                    <path d="M49.7649671,6.14797697 L48.9386842,6.14797697 L48.9386842,0.226332237 L50.833273,0.226332237 C51.9767763,0.226332237 52.9365789,0.661233553 52.9365789,1.86557566 C52.9365789,2.73537829 52.3438816,3.28736842 51.5011678,3.42962171 L53.1534375,6.14782895 L52.1518914,6.14782895 L50.6497204,3.51310855 L49.7649671,3.51310855 L49.7649671,6.14797697 L49.7649671,6.14797697 Z M49.7649671,2.81901316 L50.7164803,2.81901316 C51.4927303,2.81901316 52.1018586,2.57639803 52.1018586,1.86557566 C52.1018586,1.15475329 51.4927303,0.928865132 50.7748026,0.928865132 L49.7649671,0.928865132 L49.7649671,2.81901316 Z" id="Shape"></path>
                    <path d="M54.0780099,3.95659539 L54.0780099,0.226332237 L54.9042928,0.226332237 L54.9042928,3.90641447 C54.9042928,4.71759868 55.271398,5.55409539 56.3730099,5.55409539 C57.4747697,5.55409539 57.842023,4.71774671 57.842023,3.90641447 L57.842023,0.226332237 L58.6683059,0.226332237 L58.6683059,3.95659539 C58.6683059,5.16922697 57.9339474,6.29837171 56.3730099,6.29837171 C54.8123684,6.29837171 54.0780099,5.16922697 54.0780099,3.95659539 Z" id="Path"></path>
                    <polygon id="Path" points="63.095477 4.77621711 63.1119079 4.77621711 64.856398 0.226332237 66.1415625 0.226332237 66.1415625 6.14797697 65.3152796 6.14797697 65.3152796 1.19649671 65.2988487 1.19649671 63.3375 6.14797697 62.8115625 6.14797697 60.8586513 1.19649671 60.8422204 1.19649671 60.8422204 6.14797697 60.0408059 6.14797697 60.0408059 0.226332237 61.3262664 0.226332237"></polygon>
                    <polygon id="Path" points="2.24289474 14.7842763 2.25962171 14.7842763 3.645 10.0671217 4.55476974 10.0671217 5.93185855 14.7842763 5.94858553 14.7842763 7.25047697 10.0671217 8.12679276 10.0671217 6.39088816 15.9887664 5.53129934 15.9887664 4.09574013 11.2297204 4.07901316 11.2297204 2.64345395 15.9887664 1.78386513 15.9887664 0.0479605263 10.0671217 0.941003289 10.0671217"></polygon>
                    <path d="M9.06572368,15.9887664 L8.14766447,15.9887664 L10.709852,10.0671217 L11.4609375,10.0671217 L13.9981086,15.9887664 L13.0633224,15.9887664 L12.4624836,14.5333717 L9.65827303,14.5333717 L9.06572368,15.9887664 Z M9.95032895,13.8058224 L12.1619901,13.8058224 L11.0603783,11.0288487 L9.95032895,13.8058224 Z" id="Shape"></path>
                    <path d="M19.6626316,15.0686349 C19.203602,15.6959704 18.4440789,16.1391612 17.409227,16.1391612 C15.598273,16.1391612 14.2962336,14.8427467 14.2962336,13.0195066 C14.2962336,11.171102 15.6483059,9.91643092 17.4426809,9.91643092 C18.2522368,9.91643092 19.1285526,10.2342434 19.5625658,10.8365625 L18.9116941,11.3383717 C18.6279276,10.9369243 18.0519572,10.6442763 17.4428289,10.6442763 C16.0740296,10.6442763 15.1977138,11.7232401 15.1977138,13.0196546 C15.1977138,14.349523 16.0573026,15.4034704 17.4178125,15.4034704 C18.0771217,15.4034704 18.6529441,15.1274013 19.0034704,14.6171546 L19.6626316,15.0686349 Z" id="Path"></path>
                    <polygon id="Path" points="20.5176316 10.0671217 21.3439145 10.0671217 21.3439145 12.5428618 24.3318257 12.5428618 24.3318257 10.0671217 25.166398 10.0671217 25.166398 15.9887664 24.3318257 15.9887664 24.3318257 13.2788487 21.3439145 13.2788487 21.3439145 15.9887664 20.5176316 15.9887664"></polygon>
                    <path d="M29.5245888,11.1628125 C29.2908553,10.8367105 28.8652796,10.6108224 28.3729441,10.6108224 C27.8388651,10.6108224 27.2211513,10.9037664 27.2211513,11.5726974 C27.2211513,12.2167599 27.7636678,12.3923191 28.4312664,12.6099178 C29.2240954,12.8608224 30.1671711,13.1619079 30.1671711,14.3412336 C30.1671711,15.5707401 29.1740625,16.1393092 28.1224836,16.1393092 C27.3796875,16.1393092 26.628602,15.8465132 26.1778618,15.2779441 L26.8204441,14.7342434 C27.0959211,15.1441283 27.5966941,15.4283388 28.1392105,15.4283388 C28.6900164,15.4283388 29.3243092,15.1189638 29.3243092,14.4162829 C29.3243092,13.6971711 28.6734375,13.5047368 27.9222039,13.2705592 C27.1711184,13.0363816 26.3865789,12.6934046 26.3865789,11.6061513 C26.3865789,10.4268257 27.4381579,9.91657895 28.4146875,9.91657895 C29.0990132,9.91657895 29.7417434,10.1843586 30.1088487,10.5940954 L29.5245888,11.1628125 Z" id="Path"></path>
                    <polygon id="Path" points="32.1498355 15.9887664 31.3235526 15.9887664 31.3235526 10.0671217 35.0125164 10.0671217 35.0125164 10.7946711 32.1498355 10.7946711 32.1498355 12.6347862 34.8288158 12.6347862 34.8288158 13.3457566 32.1498355 13.3457566"></polygon>
                    <path d="M35.8584868,15.9887664 L34.9404276,15.9887664 L37.5026151,10.0671217 L38.2537007,10.0671217 L40.7908717,15.9887664 L39.8562336,15.9887664 L39.2550987,14.5333717 L36.4510362,14.5333717 L35.8584868,15.9887664 Z M36.7430921,13.8058224 L38.9547533,13.8058224 L37.8531414,11.0288487 L36.7430921,13.8058224 Z" id="Shape"></path>
                    <path d="M41.5373684,10.0671217 L43.5739145,10.0671217 C44.4669572,10.0671217 45.4266118,10.4349671 45.4266118,11.5641118 C45.4266118,12.2164638 45.0094737,12.6849671 44.3919079,12.8522368 L44.3919079,12.8688158 C45.1514309,12.9608882 45.7022368,13.4794243 45.7022368,14.3074836 C45.7022368,15.4450658 44.7175658,15.9886184 43.4821382,15.9886184 L41.5375164,15.9886184 L41.5375164,10.0671217 L41.5373684,10.0671217 Z M42.3636513,12.5680263 L43.4402467,12.5680263 C44.0745395,12.5680263 44.600477,12.2919572 44.600477,11.6478947 C44.600477,11.0122697 44.0914145,10.7613651 43.306727,10.7613651 L42.3636513,10.7613651 L42.3636513,12.5680263 L42.3636513,12.5680263 Z M42.3636513,15.2862336 L43.3986513,15.2862336 C44.0997039,15.2862336 44.8673684,15.0686349 44.8673684,14.2657401 C44.8673684,13.5716447 44.3750329,13.2704112 43.4738487,13.2704112 L42.3636513,13.2704112 L42.3636513,15.2862336 L42.3636513,15.2862336 Z" id="Shape"></path>
                    <path d="M47.6925987,15.9887664 L46.8663158,15.9887664 L46.8663158,10.0671217 L48.7609046,10.0671217 C49.9044079,10.0671217 50.8642105,10.502023 50.8642105,11.7063651 C50.8642105,12.5761678 50.2715132,13.1281579 49.4287993,13.2704112 L51.0810691,15.9886184 L50.079523,15.9886184 L48.577352,13.353898 L47.6925987,13.353898 L47.6925987,15.9887664 L47.6925987,15.9887664 Z M47.6925987,12.6599507 L48.6441118,12.6599507 C49.4203618,12.6599507 50.0294901,12.4173355 50.0294901,11.7065132 C50.0294901,10.9956908 49.4203618,10.7698026 48.7024342,10.7698026 L47.6925987,10.7698026 L47.6925987,12.6599507 Z" id="Shape"></path>
                    <polygon id="Path" points="52.8735197 15.9887664 52.0472368 15.9887664 52.0472368 10.0671217 52.8735197 10.0671217"></polygon>
                    <polygon id="Path" points="55.0939145 12.6766776 55.1106414 12.6766776 57.7478783 10.0671217 58.8913816 10.0671217 56.0202632 12.7770395 59.0666447 15.9887664 57.8815461 15.9887664 55.1106414 12.9274342 55.0939145 12.9274342 55.0939145 15.9887664 54.2676316 15.9887664 54.2676316 10.0671217 55.0939145 10.0671217 55.0939145 12.6766776"></polygon>
                </g>
            </g>
        </g>
    </g>
</svg>