<svg id="Ebene_1" data-name="Ebene 1" xmlns="http://www.w3.org/2000/svg" viewBox="0 0 447.36 266.71"><defs><style>.cls-1{fill:#0101f4;}.cls-2{fill:#0202f4;}.cls-3{fill:#0000f4;}</style></defs><path class="cls-1" d="M19.94.43H108.6V18l-.16.15c0,.05-.11.12-.18.13a2,2,0,0,1-.47.08h-56c.12,1.09,1,1.52,1.52,2.08q25.47,25.41,51,50.79c1.47,1.46,3.44,2.75,4.18,4.53s.25,4.08.27,6.16c0,2.3,0,4.6,0,7.17-2.64,0-5.09,0-7.55,0-2,0-4.22.5-5.92-.22s-3.1-2.67-4.56-4.13q-34.53-34.51-69.06-69a5.16,5.16,0,0,1-1.72-4.19C20,7.89,19.94,4.23,19.94.43Z" transform="translate(-0.72 -0.43)"/><path class="cls-1" d="M269.46,88.4h88.47v17.94h-57.1c.83.93,1.29,1.51,1.81,2l46.52,46.43q4.06,4.06,8,8.22a2.69,2.69,0,0,1,.84,1.56c.07,4.07,0,8.13,0,12.34-.8.07-1.41.18-2,.18-3,0-6.08-.08-9.11.05a5.18,5.18,0,0,1-4.2-1.71Q314,146.53,285.11,117.73c-4.8-4.81-9.59-9.63-14.44-14.39a4.2,4.2,0,0,1-1.38-3.37c.09-3.2,0-6.4,0-9.6C269.33,89.75,269.41,89.13,269.46,88.4Z" transform="translate(-0.72 -0.43)"/><path class="cls-2" d="M359.29,178.3c4.39,0,8.38,0,12.37,0a2.57,2.57,0,0,1,1.58.7c2.73,2.67,5.38,5.41,8.09,8.09,4.16,4.1,8.38,8.15,12.53,12.26,5.28,5.23,10.52,10.51,15.77,15.76,4.29,4.3,8.61,8.58,12.88,12.9,2.94,3,5.78,6,8.74,9s6.26,6,9.35,9.09q3.54,3.51,6.95,7.13a2.35,2.35,0,0,1,.5,1.47c0,4,0,8,0,12.18a18.59,18.59,0,0,1-1.88.18c-3.27,0-6.55,0-9.82,0a4.14,4.14,0,0,1-3.34-1.4c-7.47-7.55-15-15.05-22.52-22.57Q385.76,218.41,361,193.68a5.15,5.15,0,0,1-1.74-4.17C359.38,185.86,359.29,182.2,359.29,178.3Z" transform="translate(-0.72 -0.43)"/><path class="cls-1" d="M109.83,90.38h6.38c1.76,0,3.52.08,5.28,0a4,4,0,0,1,3.33,1.41c6.92,7,13.9,13.93,20.85,20.89q25.62,25.62,51.27,51.22a5.16,5.16,0,0,1,1.71,4.18c-.13,3.59,0,7.19,0,11-.79,0-1.47.11-2.16.12-3.12,0-6.24-.09-9.35,0a4.33,4.33,0,0,1-3.54-1.52q-25.83-25.92-51.73-51.78c-6.84-6.84-13.66-13.71-20.55-20.51a4.38,4.38,0,0,1-1.48-3.56C109.91,98.11,109.83,94.37,109.83,90.38Z" transform="translate(-0.72 -0.43)"/><path class="cls-3" d="M268,177H250V88.45h18Z" transform="translate(-0.72 -0.43)"/><path class="cls-3" d="M.72.43H18.54V89H.72Z" transform="translate(-0.72 -0.43)"/></svg>