<?xml version="1.0" encoding="UTF-8"?>
<svg width="100px" height="24px" viewBox="0 0 100 24" version="1.1" xmlns="http://www.w3.org/2000/svg" xmlns:xlink="http://www.w3.org/1999/xlink">
    <title>rheinenergie</title>
    <g id="Page-1" stroke="none" stroke-width="1" fill="none" fill-rule="evenodd">
        <g id="rheinenergie" fill-rule="nonzero">
            <g id="Group">
                <path d="M63.8333333,13.7701149 C64.5804598,12.7126437 65.362069,11.683908 66.0517241,10.591954 C66.4425287,9.97701149 66.8908046,9.70114943 67.6149425,9.79885057 C68.0172414,9.85632184 68.4310345,9.81034483 68.9827586,9.81034483 C68.6264368,10.3218391 68.3505747,10.7241379 68.0689655,11.1264368 C67.4195402,12.0402299 66.7643678,12.9482759 66.1206897,13.862069 C66.0057471,14.0287356 65.7528736,14.2241379 66.1609195,14.3735632 C67.1724138,14.7471264 67.5862069,15.6034483 67.8793103,16.5402299 C68.0114943,16.954023 68.1034483,17.3793103 68.2471264,17.7873563 C68.3678161,18.1321839 68.5344828,18.454023 68.6666667,18.7988506 C68.7701149,19.0747126 69.2931034,19.1954023 69.1264368,19.4655172 C68.954023,19.7586207 68.4942529,19.5747126 68.1666667,19.5804598 C66.7816092,19.5977011 66.7873563,19.5862069 66.3448276,18.2471264 C66.1609195,17.683908 65.9712644,17.1206897 65.7528736,16.5689655 C65.5804598,16.1494253 65.2701149,15.8505747 64.8045977,15.7471264 C63.9827586,15.5632184 63.6666667,15.816092 63.6666667,16.6436782 C63.6666667,17.4655172 63.6551724,18.2873563 63.6724138,19.1091954 C63.6781609,19.4655172 63.5402299,19.5689655 63.1896552,19.591954 C61.7471264,19.6724138 61.7471264,19.683908 61.7471264,18.2298851 C61.7471264,15.6724138 61.7643678,13.1149425 61.7356322,10.5574713 C61.7298851,9.95402299 61.8850575,9.77011494 62.5,9.79310345 C63.8678161,9.85632184 63.6551724,9.63793103 63.6724138,10.9597701 C63.683908,11.8735632 63.6724138,12.7816092 63.6724138,13.6954023 C63.7241379,13.7241379 63.7816092,13.7471264 63.8333333,13.7701149 Z" id="Path" fill="#2F2F2F"></path>
                <path d="M1.39655172,16.5517241 C1.86206897,16.4367816 2.2183908,16.637931 2.55747126,17.1551724 C3.09195402,17.9770115 4.33333333,18.183908 5.2183908,17.7241379 C5.66091954,17.4942529 5.94827586,17.137931 5.90804598,16.6321839 C5.87356322,16.1149425 5.53448276,15.816092 5.03448276,15.7126437 C4.36206897,15.5747126 3.67816092,15.4770115 3.01149425,15.3218391 C1.52298851,14.9770115 0.724137931,13.9885057 0.74137931,12.5689655 C0.75862069,11.1206897 1.63218391,10.1264368 3.11494253,9.8045977 C4.09195402,9.59770115 5.02873563,9.68390805 5.94252874,10.0632184 C6.95402299,10.4885057 7.43678161,11.2931034 7.57471264,12.3390805 C7.5862069,12.4425287 7.59770115,12.5862069 7.54597701,12.6609195 C7.34482759,12.9310345 5.76436782,12.7241379 5.61494253,12.4252874 C5.16666667,11.5229885 4.49425287,11.2068966 3.55747126,11.454023 C3.04022989,11.591954 2.71264368,11.908046 2.67241379,12.454023 C2.63218391,13.0172414 2.91954023,13.3793103 3.44827586,13.5114943 C4.11494253,13.6781609 4.79310345,13.7931034 5.46551724,13.9310345 C7.03448276,14.2528736 7.82183908,15.0977011 7.89655172,16.5517241 C7.96551724,17.954023 7.16091954,19.0574713 5.67241379,19.4482759 C4.01149425,19.8850575 2.43678161,19.7816092 1.16091954,18.4425287 C0.959770115,18.2298851 0.781609195,17.9770115 0.637931034,17.7241379 C0.0689655172,16.7471264 0.183908046,16.5517241 1.39655172,16.5517241 Z" id="Path" fill="#1C1C1C"></path>
                <path d="M49.6264368,18.7356322 C49.3103448,18.8908046 49.0747126,19.0344828 48.8218391,19.1264368 C47.1091954,19.7471264 45.5747126,18.8505747 45.2816092,17 C45.137931,16.1034483 45.1264368,15.1781609 45.3505747,14.2816092 C45.7931034,12.5287356 47.5,11.7758621 49.1149425,12.6206897 C49.3505747,12.7471264 49.6321839,13.137931 49.7816092,12.5172414 C49.816092,12.3850575 51.362069,12.3563218 51.4425287,12.4827586 C51.5057471,12.5862069 51.4942529,12.7356322 51.4942529,12.862069 C51.4827586,14.9425287 51.4195402,17.0229885 51.4712644,19.0977011 C51.545977,21.9195402 48.5862069,22.9252874 46.6321839,21.9827586 C46.1149425,21.7356322 45.7471264,21.3390805 45.5574713,20.7873563 C45.4482759,20.4655172 45.4942529,20.2471264 45.9137931,20.2758621 C46.4195402,20.3045977 46.8793103,20.2356322 47.3448276,20.6724138 C48.091954,21.3735632 49.4597701,20.637931 49.6264368,19.5 C49.6551724,19.2816092 49.6264368,19.0517241 49.6264368,18.7356322 Z" id="Path" fill="#1C1C1C"></path>
                <path d="M56.3333333,11.683908 C56.3333333,8.18965517 56.3275862,4.6954023 56.3390805,1.1954023 C56.3390805,0.91954023 56.1781609,0.505747126 56.5172414,0.396551724 C56.9425287,0.25862069 57.4310345,0.281609195 57.8735632,0.402298851 C58.0862069,0.459770115 58.0114943,0.712643678 58.0172414,0.885057471 C58.0229885,1.52298851 58.0229885,2.16666667 58.0229885,2.8045977 C58.0229885,9.29310345 58.0229885,15.7816092 58.0172414,22.2701149 C58.0172414,22.5172414 58.183908,22.9022989 57.816092,22.9770115 C57.3793103,23.0689655 56.8850575,23.1264368 56.4655172,22.9367816 C56.2241379,22.8275862 56.3390805,22.4770115 56.3390805,22.2356322 C56.3333333,18.7183908 56.3333333,15.2011494 56.3333333,11.683908 Z" id="Path" fill="#2F2F2F"></path>
                <path d="M37.5114943,15.9885057 C37.5114943,14.9827586 37.5287356,13.9770115 37.5057471,12.9770115 C37.4942529,12.5517241 37.6034483,12.2816092 38.0689655,12.3908046 C38.5114943,12.4942529 39.1609195,12.0114943 39.3678161,12.8390805 C39.3908046,12.9310345 39.5977011,12.7643678 39.7068966,12.7068966 C41.7183908,11.6321839 43.5689655,12.7126437 43.5862069,14.9885057 C43.5977011,16.3333333 43.5689655,17.683908 43.5977011,19.0287356 C43.6091954,19.4827586 43.4597701,19.6034483 43.0172414,19.6034483 C41.7816092,19.6034483 41.7816092,19.6206897 41.7816092,18.3850575 C41.7816092,17.3793103 41.7931034,16.3735632 41.7758621,15.3735632 C41.7643678,14.454023 41.3103448,13.9367816 40.5574713,13.954023 C39.7988506,13.9712644 39.3505747,14.4885057 39.3390805,15.3965517 C39.3218391,16.5804598 39.3103448,17.7701149 39.3448276,18.954023 C39.362069,19.4655172 39.2068966,19.6149425 38.6896552,19.6034483 C37.5229885,19.5804598 37.5229885,19.6034483 37.5229885,18.454023 C37.5229885,17.6321839 37.5229885,16.8103448 37.5229885,15.9885057 C37.5229885,15.9885057 37.5172414,15.9885057 37.5114943,15.9885057 Z" id="Path" fill="#1C1C1C"></path>
                <path d="M35.5862069,16.0632184 C35.5862069,17.0689655 35.5632184,18.0747126 35.5977011,19.0747126 C35.6091954,19.4712644 35.4942529,19.6091954 35.1034483,19.5747126 C34.8103448,19.5517241 34.5057471,19.5689655 34.2126437,19.5689655 C34.1206897,19.5689655 33.9655172,19.5862069 33.9482759,19.545977 C33.6264368,18.7528736 33.2241379,19.4022989 32.908046,19.5172414 C31.2183908,20.1149425 29.6091954,19.1034483 29.545977,17.316092 C29.4942529,15.8563218 29.5344828,14.3965517 29.5172414,12.9367816 C29.5114943,12.5689655 29.6034483,12.4195402 30.0114943,12.408046 C31.3333333,12.3678161 31.3333333,12.3505747 31.3333333,13.6724138 C31.3333333,14.6781609 31.3218391,15.683908 31.3390805,16.683908 C31.3505747,17.5229885 31.7816092,18.0172414 32.4770115,18.0402299 C33.2126437,18.0574713 33.7183908,17.5747126 33.7471264,16.7241379 C33.7816092,15.5172414 33.7816092,14.3045977 33.7528736,13.0977011 C33.7356322,12.5632184 33.8908046,12.3850575 34.4425287,12.408046 C35.7931034,12.4655172 35.5632184,12.2586207 35.5804598,13.5287356 C35.591954,14.3735632 35.5804598,15.2183908 35.5804598,16.0632184 C35.5747126,16.0632184 35.5804598,16.0632184 35.5862069,16.0632184 Z" id="Path" fill="#1C1C1C"></path>
                <path d="M76.3793103,16.0747126 C76.3793103,17.0804598 76.3678161,18.0862069 76.3850575,19.0862069 C76.3908046,19.4252874 76.2931034,19.6609195 75.9367816,19.5574713 C75.4770115,19.4252874 74.8218391,19.9770115 74.5402299,19.1666667 C74.4885057,19.0114943 74.316092,19.2068966 74.2068966,19.2643678 C72.1896552,20.316092 70.3908046,19.3045977 70.3218391,17.0517241 C70.2816092,15.683908 70.3275862,14.3103448 70.2988506,12.9425287 C70.2931034,12.5057471 70.4597701,12.4022989 70.862069,12.4137931 C72.4022989,12.4482759 72.0862069,12.2528736 72.1149425,13.6149425 C72.137931,14.7298851 72.1034483,15.8505747 72.1724138,16.9655172 C72.2126437,17.6609195 72.6609195,18.0229885 73.2873563,18.0344828 C73.9195402,18.0517241 74.4022989,17.6494253 74.5229885,16.9827586 C74.5574713,16.7816092 74.5574713,16.5747126 74.5574713,16.3678161 C74.5632184,15.2701149 74.5804598,14.1781609 74.5517241,13.0804598 C74.5402299,12.6034483 74.6321839,12.3908046 75.183908,12.4022989 C76.3735632,12.4252874 76.3735632,12.3908046 76.3735632,13.6091954 C76.3735632,14.4310345 76.3735632,15.2528736 76.3735632,16.0747126 C76.3735632,16.0747126 76.3793103,16.0747126 76.3793103,16.0747126 Z" id="Path" fill="#2F2F2F"></path>
                <path d="M93.8275862,16.0344828 C93.8275862,16.9942529 93.7931034,17.954023 93.8390805,18.908046 C93.8678161,19.454023 93.6954023,19.6494253 93.1609195,19.5747126 C92.9137931,19.5402299 92.6551724,19.5689655 92.4022989,19.5689655 C92.2413793,19.5689655 92.0689655,19.591954 92.0517241,19.3505747 C92.0114943,18.9252874 91.7988506,19.1666667 91.6436782,19.2586207 C91.1781609,19.5402299 90.6781609,19.6896552 90.137931,19.6724138 C88.7011494,19.6149425 87.7988506,18.7011494 87.7758621,17.2643678 C87.7528736,15.8505747 87.7931034,14.4310345 87.7586207,13.0172414 C87.7471264,12.5172414 87.9310345,12.4022989 88.3965517,12.4137931 C89.8390805,12.454023 89.5574713,12.2643678 89.5804598,13.545977 C89.5977011,14.5977011 89.5804598,15.6494253 89.5862069,16.7011494 C89.591954,17.5574713 90.0057471,18.0287356 90.7183908,18.0402299 C91.4712644,18.0517241 91.9425287,17.5632184 91.9482759,16.7068966 C91.9597701,15.4942529 91.9712644,14.2873563 91.9425287,13.0747126 C91.9310345,12.5747126 92.0632184,12.3850575 92.591954,12.408046 C93.9597701,12.4597701 93.7528736,12.2528736 93.7701149,13.5689655 C93.7816092,14.3908046 93.7701149,15.2126437 93.7701149,16.0344828 C93.7988506,16.0344828 93.8103448,16.0344828 93.8275862,16.0344828 Z" id="Path" fill="#2F2F2F"></path>
                <path d="M82.591954,15.954023 C82.591954,15.5862069 82.5747126,15.2241379 82.5977011,14.8563218 C82.6321839,14.2356322 82.6954023,13.7068966 81.7356322,13.7701149 C81.1781609,13.8045977 81.5229885,13.2011494 81.4482759,12.8965517 C81.3850575,12.6321839 81.4597701,12.362069 81.8275862,12.4252874 C82.5114943,12.5402299 82.6666667,12.183908 82.5862069,11.6091954 C82.5804598,11.5632184 82.5862069,11.5172414 82.5862069,11.4712644 C82.5862069,10.3103448 82.9252874,9.96551724 84.1149425,9.84482759 C84.4367816,9.81034483 84.454023,9.98275862 84.454023,10.2011494 C84.454023,10.7471264 84.4827586,11.2988506 84.4482759,11.8448276 C84.4195402,12.3103448 84.6091954,12.4655172 85.045977,12.4137931 C85.183908,12.3965517 85.3218391,12.4137931 85.4597701,12.4137931 C86.2758621,12.4137931 86.4942529,12.7356322 86.2931034,13.5517241 C86.2068966,13.9022989 85.954023,13.7931034 85.7528736,13.8045977 C84.4597701,13.8505747 84.4597701,13.8505747 84.4597701,15.1724138 C84.4597701,15.9022989 84.4770115,16.6321839 84.454023,17.362069 C84.4367816,17.9712644 84.7068966,18.2298851 85.2931034,18.0804598 C86.0747126,17.8793103 85.9942529,18.4827586 86.1206897,18.908046 C86.2816092,19.4482759 85.9137931,19.5 85.5344828,19.5862069 C83.6494253,19.9942529 82.591954,19.1666667 82.5862069,17.2528736 C82.591954,16.8218391 82.591954,16.3850575 82.591954,15.954023 Z" id="Path" fill="#2F2F2F"></path>
                <path d="M10.0632184,16.0172414 C10.0632184,15.4712644 10.0402299,14.9195402 10.0689655,14.3735632 C10.091954,13.9252874 9.93678161,13.7298851 9.48275862,13.8103448 C8.94252874,13.908046 8.82183908,13.6494253 8.85057471,13.1609195 C8.87356322,12.7298851 8.8045977,12.3045977 9.46551724,12.4195402 C9.96551724,12.5057471 10.1206897,12.2471264 10.0632184,11.7931034 C10.0574713,11.7241379 10.0632184,11.6551724 10.0632184,11.5862069 C10.0689655,10.1724138 10.0977011,10.1436782 11.4597701,9.86781609 C11.7643678,9.8045977 11.8908046,9.87356322 11.8850575,10.1896552 C11.8793103,10.7356322 11.908046,11.2873563 11.8793103,11.8333333 C11.8563218,12.2586207 11.9770115,12.4885057 12.4482759,12.4252874 C12.6264368,12.4022989 12.816092,12.4425287 13,12.4195402 C13.591954,12.3333333 13.7931034,12.5402299 13.7816092,13.1609195 C13.7701149,13.7241379 13.5747126,13.8390805 13.0632184,13.8275862 C11.8908046,13.7988506 11.8850575,13.8218391 11.8850575,15.0172414 C11.8850575,15.7931034 11.8908046,16.5689655 11.8850575,17.3448276 C11.8793103,17.9137931 12.0977011,18.2586207 12.7126437,18.0977011 C13.5229885,17.8850575 13.4425287,18.4885057 13.5747126,18.9425287 C13.7528736,19.5747126 13.2643678,19.5287356 12.9195402,19.5977011 C11.0804598,19.9770115 10.0804598,19.1724138 10.0747126,17.3275862 C10.0632184,16.8850575 10.0632184,16.454023 10.0632184,16.0172414 Z" id="Path" fill="#1C1C1C"></path>
                <path d="M24.3850575,16.0344828 C24.3850575,15.6436782 24.362069,15.2586207 24.3908046,14.8678161 C24.4367816,14.2011494 24.454023,13.683908 23.4770115,13.7643678 C22.9195402,13.8103448 23.2701149,13.2011494 23.1954023,12.8965517 C23.1321839,12.6436782 23.1781609,12.3505747 23.5632184,12.4195402 C24.3275862,12.5574713 24.4712644,12.1551724 24.3908046,11.5287356 C24.3850575,11.4827586 24.3908046,11.4367816 24.3908046,11.3908046 C24.3908046,10.3333333 24.8333333,9.88505747 25.9022989,9.82758621 C26.2356322,9.81034483 26.2068966,10.0229885 26.2126437,10.2241379 C26.2183908,10.7701149 26.2356322,11.3218391 26.2068966,11.8678161 C26.1896552,12.2816092 26.3275862,12.4655172 26.7528736,12.4137931 C26.9310345,12.3908046 27.1206897,12.4367816 27.3045977,12.408046 C27.9425287,12.3103448 28.1206897,12.5689655 28.1091954,13.1954023 C28.1034483,13.7471264 27.8850575,13.8218391 27.4137931,13.816092 C26.2126437,13.7988506 26.2126437,13.816092 26.2126437,14.9827586 C26.2126437,15.7586207 26.2241379,16.5344828 26.2126437,17.3103448 C26.2011494,17.9195402 26.4425287,18.2471264 27.0804598,18.0862069 C27.8678161,17.8850575 27.7586207,18.5 27.8908046,18.9137931 C28.0632184,19.4597701 27.6896552,19.5114943 27.3218391,19.5804598 C26.9137931,19.6609195 26.5114943,19.7413793 26.0977011,19.6724138 C25.091954,19.5 24.4597701,18.8333333 24.408046,17.816092 C24.3678161,17.2241379 24.3908046,16.6321839 24.3850575,16.0344828 C24.3908046,16.0344828 24.3908046,16.0344828 24.3850575,16.0344828 Z" id="Path" fill="#1C1C1C"></path>
                <path d="M19.5114943,16.6436782 C19.5114943,15.8678161 19.4942529,15.091954 19.5172414,14.316092 C19.5287356,13.9425287 19.4252874,13.7528736 19.0172414,13.8045977 C18.4425287,13.8793103 18.5402299,13.4655172 18.545977,13.137931 C18.5517241,12.7988506 18.408046,12.3448276 19.0344828,12.4137931 C19.3908046,12.454023 19.5057471,12.2988506 19.5114943,11.9425287 C19.5287356,9.77011494 21.1551724,9.40229885 22.6724138,9.81034483 C23.3793103,10 22.9482759,10.4425287 22.9425287,10.7931034 C22.9310345,11.1781609 22.8045977,11.3965517 22.3505747,11.2701149 C21.9310345,11.1551724 21.5114943,11.137931 21.3735632,11.7011494 C21.2643678,12.1436782 21.2931034,12.5057471 21.9022989,12.408046 C22.4770115,12.3218391 22.5862069,12.5977011 22.5804598,13.1034483 C22.5747126,13.5977011 22.5,13.908046 21.9137931,13.7988506 C21.3965517,13.7068966 21.316092,13.9827586 21.3218391,14.4252874 C21.3448276,15.908046 21.3103448,17.3965517 21.3390805,18.8793103 C21.3505747,19.3850575 21.2471264,19.6149425 20.6666667,19.591954 C19.2816092,19.5287356 19.5344828,19.7471264 19.5114943,18.4195402 C19.5057471,17.8333333 19.5114943,17.2413793 19.5114943,16.6436782 Z" id="Path" fill="#1C1C1C"></path>
                <path d="M78.2758621,14.6321839 C78.2758621,13.2413793 78.2988506,11.8448276 78.2643678,10.454023 C78.2528736,9.90804598 78.4310345,9.74712644 78.9655172,9.76436782 C80.3275862,9.8045977 80.0747126,9.68390805 80.0804598,10.8390805 C80.091954,13.5114943 80.0632184,16.183908 80.1034483,18.8563218 C80.1091954,19.4712644 79.9310345,19.6896552 79.3390805,19.5977011 C79.183908,19.5747126 79.0172414,19.5747126 78.8563218,19.5977011 C78.408046,19.6494253 78.2643678,19.4712644 78.2701149,19.0229885 C78.2873563,17.5574713 78.2758621,16.091954 78.2758621,14.6321839 Z" id="Path" fill="#2F2F2F"></path>
                <path d="M95.7241379,15.9425287 C95.7241379,14.9367816 95.7413793,13.9310345 95.7126437,12.9252874 C95.7011494,12.5517241 95.7988506,12.316092 96.1896552,12.4252874 C96.6551724,12.5574713 97.2988506,12.0172414 97.6091954,12.8045977 C97.6666667,12.9597701 97.8448276,12.7701149 97.9425287,12.7011494 C98.3735632,12.4022989 98.8563218,12.316092 99.3735632,12.2873563 C99.8735632,12.2586207 100.034483,12.4597701 99.9827586,12.9195402 C99.9655172,13.0804598 99.9655172,13.2413793 99.9827586,13.3965517 C100.045977,13.9310345 99.8850575,14.1034483 99.2988506,14 C98.1034483,13.7816092 97.5862069,14.2586207 97.5804598,15.4770115 C97.5689655,16.6436782 97.5574713,17.8103448 97.5862069,18.9712644 C97.5977011,19.4482759 97.4655172,19.6091954 96.9712644,19.591954 C95.5114943,19.545977 95.7931034,19.7528736 95.7643678,18.4022989 C95.7471264,17.5804598 95.7643678,16.7586207 95.7643678,15.9310345 C95.7528736,15.9425287 95.7356322,15.9425287 95.7241379,15.9425287 Z" id="Path" fill="#2F2F2F"></path>
                <path d="M17.1149425,16.0747126 C17.1149425,17.0804598 17.1034483,18.0804598 17.1206897,19.0862069 C17.1264368,19.4770115 16.9942529,19.6034483 16.6034483,19.5977011 C14.9942529,19.5632184 15.316092,19.7701149 15.2988506,18.3793103 C15.2758621,16.6206897 15.316092,14.8678161 15.2816092,13.1091954 C15.2701149,12.5689655 15.4425287,12.4137931 15.9770115,12.4252874 C17.1149425,12.4597701 17.1149425,12.4310345 17.1149425,13.5402299 C17.1149425,14.3850575 17.1149425,15.2298851 17.1149425,16.0747126 Z" id="Path" fill="#1D1D1D"></path>
                <path d="M12.3850575,5.8045977 C11.1551724,5.90804598 11.1551724,5.90804598 10.8275862,4.8908046 C10.7528736,4.65517241 10.6781609,4.40804598 10.5632184,4.18965517 C10.4137931,3.90804598 10.1264368,3.88505747 9.84482759,3.9137931 C9.48275862,3.95402299 9.6091954,4.24137931 9.59195402,4.44827586 C9.57471264,4.7183908 9.58045977,4.99425287 9.59195402,5.27011494 C9.6091954,5.61494253 9.60344828,5.86781609 9.1091954,5.86781609 C8.64367816,5.86781609 8.59770115,5.66666667 8.60344828,5.29310345 C8.62068966,4.04022989 8.62643678,2.78735632 8.60344828,1.52873563 C8.59770115,1.1091954 8.68390805,0.896551724 9.16091954,0.931034483 C9.68390805,0.971264368 10.2126437,0.925287356 10.7413793,0.948275862 C11.3908046,0.977011494 11.8908046,1.26436782 12.1091954,1.90229885 C12.3218391,2.51724138 12.2241379,3.08045977 11.7126437,3.51149425 C11.5057471,3.68390805 11.4310345,3.79885057 11.5862069,4.06321839 C11.8908046,4.59195402 11.8505747,5.26436782 12.3850575,5.8045977 Z" id="Path" fill="#1D1D1D"></path>
                <path d="M27.5,3.40804598 C27.5,2.74712644 27.5114943,2.08045977 27.4942529,1.41954023 C27.4827586,1.06896552 27.6091954,0.931034483 27.9712644,0.936781609 C28.8218391,0.954022989 29.6666667,0.948275862 30.5172414,0.936781609 C30.8103448,0.931034483 30.9195402,1.04597701 30.9252874,1.33908046 C30.9310345,1.64942529 30.8390805,1.8045977 30.5057471,1.79310345 C30.045977,1.77586207 29.5862069,1.81609195 29.1321839,1.78735632 C28.6666667,1.75862069 28.4770115,1.89655172 28.4885057,2.39655172 C28.4942529,2.86206897 28.6666667,3 29.1034483,2.95977011 C29.4195402,2.93103448 29.7471264,2.94827586 30.0632184,2.95402299 C30.3505747,2.95977011 30.6494253,2.87356322 30.6609195,3.36206897 C30.6724138,3.89655172 30.3448276,3.81034483 30.0287356,3.81034483 C29.7298851,3.81034483 29.4310345,3.83333333 29.1321839,3.8045977 C28.6724138,3.75862069 28.4885057,3.89655172 28.4827586,4.40229885 C28.4770115,4.94252874 28.7413793,4.99425287 29.1609195,4.97701149 C29.6206897,4.95977011 30.0804598,4.98850575 30.5344828,4.97126437 C30.908046,4.95977011 30.9137931,5.18390805 30.9252874,5.45977011 C30.9310345,5.75862069 30.8218391,5.86206897 30.5287356,5.85632184 C29.6551724,5.84482759 28.7873563,5.83908046 27.9137931,5.85632184 C27.5574713,5.86206897 27.4942529,5.68965517 27.5,5.3908046 C27.5057471,4.72988506 27.5,4.06896552 27.5,3.40804598 Z" id="Path" fill="#1E1E1E"></path>
                <path d="M44.7701149,5.50574713 C44.0977011,5.77011494 43.4310345,5.89655172 42.9252874,5.2183908 C42.4885057,4.63218391 42.5114943,3.22988506 42.9367816,2.66666667 C43.1436782,2.3908046 43.4310345,2.20114943 43.7528736,2.2183908 C44.3505747,2.24712644 44.9425287,2.35632184 45.545977,2.2816092 C45.8218391,2.24712644 45.7873563,2.48850575 45.7873563,2.66666667 C45.7816092,3.67241379 45.7988506,4.67816092 45.7643678,5.68390805 C45.7241379,6.94252874 44.3045977,7.67816092 43.2528736,7 C43.0057471,6.83908046 42.6724138,6.5862069 42.8448276,6.31034483 C42.9885057,6.0862069 43.3678161,6.1954023 43.6551724,6.34482759 C44.3218391,6.70689655 44.7988506,6.34482759 44.7701149,5.50574713 Z" id="Path" fill="#1D1D1D"></path>
                <path d="M14.1149425,2.3908046 C15.6321839,1.98850575 16.1781609,2.40804598 16.183908,3.9137931 C16.183908,4.4137931 16.1724138,4.91954023 16.1896552,5.41954023 C16.2011494,5.73563218 16.1091954,5.87931034 15.7701149,5.86206897 C15.4712644,5.84482759 15.2298851,5.85632184 15.2471264,5.44252874 C15.2701149,4.87356322 15.2471264,4.3045977 15.2528736,3.73563218 C15.2586207,3.32758621 15.091954,3.05172414 14.6609195,3.06896552 C14.2758621,3.0862069 14.1206897,3.35057471 14.1206897,3.72413793 C14.1264368,4.29310345 14.1091954,4.86206897 14.1264368,5.43103448 C14.137931,5.75287356 14.0229885,5.87356322 13.6954023,5.86206897 C13.3850575,5.85057471 13.1724138,5.83333333 13.1781609,5.43103448 C13.1954023,4.0862069 13.1954023,2.74137931 13.1781609,1.39655172 C13.1724138,1.02298851 13.3448276,0.942528736 13.6781609,0.936781609 C14.0632184,0.925287356 14.1436782,1.10344828 14.1264368,1.43103448 C14.0977011,1.74137931 14.1149425,2.06321839 14.1149425,2.3908046 Z" id="Path" fill="#1E1E1E"></path>
                <path d="M18.7643678,5.86781609 C18.0977011,5.89655172 17.5057471,5.72413793 17.2356322,5.06321839 C16.908046,4.26436782 16.8850575,3.44252874 17.4597701,2.72988506 C17.9310345,2.14367816 18.5977011,2.10344828 19.2816092,2.28735632 C20,2.48850575 20.4827586,3.36781609 20.3333333,4.08045977 C20.2758621,4.34482759 20.1149425,4.33333333 19.9367816,4.33333333 C19.4310345,4.33908046 18.9310345,4.33333333 18.4252874,4.33908046 C18.2988506,4.33908046 18.1264368,4.2816092 18.0574713,4.43103448 C17.9770115,4.59770115 18.0977011,4.74712644 18.2068966,4.85057471 C18.5057471,5.14942529 18.8735632,5.18390805 19.2126437,4.96551724 C19.5689655,4.73563218 20.1091954,4.6091954 20.2298851,4.90804598 C20.3850575,5.3045977 19.8908046,5.56896552 19.5114943,5.75287356 C19.2643678,5.87931034 19.0172414,5.86781609 18.7643678,5.86781609 Z" id="Path" fill="#1D1D1D"></path>
                <path d="M50.3448276,5.86781609 C49.6609195,5.90804598 49.0977011,5.67241379 48.8448276,5.01724138 C48.5344828,4.2183908 48.5229885,3.3908046 49.1149425,2.6954023 C49.5804598,2.14367816 50.2356322,2.11494253 50.8850575,2.28735632 C51.5977011,2.47126437 52.0862069,3.32183908 51.9942529,4.05747126 C51.954023,4.37931034 51.7586207,4.33908046 51.5632184,4.33908046 C51.0574713,4.34482759 50.5574713,4.33908046 50.0517241,4.34482759 C49.9252874,4.34482759 49.7586207,4.28735632 49.6896552,4.44252874 C49.6091954,4.61494253 49.7183908,4.76436782 49.8333333,4.86781609 C50.1609195,5.16091954 50.5402299,5.20114943 50.9022989,4.94827586 C51.2413793,4.71264368 51.7413793,4.64942529 51.8678161,4.90229885 C52.0344828,5.24712644 51.591954,5.50574713 51.2758621,5.6954023 C50.9885057,5.86781609 50.6724138,5.88505747 50.3448276,5.86781609 Z" id="Path" fill="#1D1D1D"></path>
                <path d="M37.8563218,4.34482759 C37.6494253,4.34482759 37.4425287,4.32758621 37.2413793,4.35057471 C37.0747126,4.36781609 36.8218391,4.24137931 36.7643678,4.46551724 C36.7011494,4.70689655 36.8965517,4.88505747 37.1034483,5 C37.362069,5.14367816 37.6321839,5.13793103 37.8965517,5.01149425 C38,4.96551724 38.0804598,4.84482759 38.1781609,4.82758621 C38.4597701,4.78735632 38.8390805,4.63793103 38.9827586,4.9137931 C39.1034483,5.15517241 38.8045977,5.39655172 38.5862069,5.56321839 C37.9770115,6.02873563 36.8218391,6 36.2816092,5.50574713 C35.6954023,4.97701149 35.5689655,3.74712644 36.0172414,2.95977011 C36.3850575,2.31609195 37.1954023,2.04022989 38,2.28735632 C38.7126437,2.50574713 39.2068966,3.35057471 39.0689655,4.07471264 C39.0287356,4.27586207 38.9425287,4.34482759 38.7586207,4.34482759 C38.454023,4.33908046 38.1551724,4.33908046 37.8563218,4.34482759 C37.8563218,4.34482759 37.8563218,4.34482759 37.8563218,4.34482759 Z" id="Path" fill="#1D1D1D"></path>
                <path d="M34.908046,4.44827586 C34.908046,4.74712644 34.8908046,5.04022989 34.9137931,5.33908046 C34.9367816,5.6954023 34.862069,5.87356322 34.4367816,5.86781609 C34.0057471,5.86781609 33.954023,5.66091954 33.9655172,5.31609195 C33.9827586,4.79310345 33.9655172,4.27011494 33.9655172,3.74137931 C33.9655172,3.35057471 33.8275862,3.04597701 33.3908046,3.05172414 C32.9712644,3.05172414 32.7988506,3.32183908 32.8103448,3.72988506 C32.8218391,4.29885057 32.7931034,4.86781609 32.816092,5.43678161 C32.8333333,5.85632184 32.5804598,5.83908046 32.2873563,5.85057471 C31.9597701,5.86781609 31.8448276,5.74137931 31.8505747,5.41954023 C31.8678161,4.48850575 31.862069,3.55172414 31.8563218,2.62068966 C31.8505747,2.06896552 32.2643678,2.1954023 32.5287356,2.25862069 C32.7758621,2.31034483 32.9655172,2.36206897 33.2298851,2.2816092 C34.1781609,1.98850575 34.8563218,2.49425287 34.9022989,3.48850575 C34.9252874,3.81034483 34.908046,4.12643678 34.908046,4.44827586 Z" id="Path" fill="#1E1E1E"></path>
                <path d="M23.3390805,4.01149425 C23.3390805,3.60344828 23.3735632,3.18390805 23.3333333,2.7816092 C23.2758621,2.22413793 23.6091954,2.12643678 23.9885057,2.26436782 C24.2988506,2.37356322 24.5344828,2.33333333 24.8218391,2.25287356 C25.6034483,2.03448276 26.2931034,2.47126437 26.3563218,3.26436782 C26.4137931,4.01149425 26.3735632,4.77011494 26.3850575,5.52298851 C26.3908046,5.87356322 26.1609195,5.85057471 25.9252874,5.85632184 C25.6609195,5.86206897 25.4770115,5.81609195 25.4827586,5.49425287 C25.4885057,4.97126437 25.4885057,4.44252874 25.4770115,3.91954023 C25.4655172,3.48850575 25.408046,3.04022989 24.8390805,3.05747126 C24.3218391,3.07471264 24.2643678,3.48275862 24.2701149,3.90229885 C24.2758621,4.40229885 24.2528736,4.90804598 24.2758621,5.40804598 C24.2931034,5.78735632 24.1206897,5.85632184 23.7816092,5.86206897 C23.4022989,5.87356322 23.3103448,5.72413793 23.3275862,5.37931034 C23.3563218,4.92528736 23.3390805,4.47126437 23.3390805,4.01149425 Z" id="Path" fill="#1D1D1D"></path>
                <path d="M40.683908,2.27011494 C40.9712644,2.43678161 41.2988506,2.33333333 41.6494253,2.21264368 C41.9482759,2.1091954 42.1896552,2.16091954 42.1954023,2.57471264 C42.2011494,2.92528736 42.1724138,3.14367816 41.7126437,3.05747126 C41.2241379,2.96551724 40.9885057,3.24712644 40.9827586,3.72413793 C40.9770115,4.24712644 40.9712644,4.77586207 40.9827586,5.29885057 C40.9885057,5.61494253 41,5.86206897 40.5402299,5.86206897 C40.0632184,5.86206897 40.0344828,5.63218391 40.0402299,5.27011494 C40.0574713,4.44827586 40.0402299,3.62643678 40.045977,2.79885057 C40.0402299,2.25287356 40.0632184,2.23563218 40.683908,2.27011494 Z" id="Path" fill="#202020"></path>
                <path d="M21.3563218,4.00574713 C21.3563218,3.57471264 21.3735632,3.14367816 21.3505747,2.71264368 C21.3333333,2.33333333 21.5229885,2.27011494 21.8505747,2.26436782 C22.2068966,2.25862069 22.2586207,2.44252874 22.2528736,2.72988506 C22.2413793,3.63793103 22.2356322,4.54597701 22.2528736,5.45402299 C22.2586207,5.8045977 22.0977011,5.86206897 21.7931034,5.86206897 C21.4770115,5.86206897 21.3333333,5.76436782 21.3448276,5.43678161 C21.3678161,4.95977011 21.362069,4.48275862 21.3563218,4.00574713 Z" id="Path" fill="#1C1C1C"></path>
                <path d="M47.7758621,4 C47.7758621,4.45402299 47.7643678,4.90804598 47.7816092,5.36206897 C47.7931034,5.68390805 47.7241379,5.86206897 47.3333333,5.86206897 C46.9655172,5.86206897 46.8678161,5.72413793 46.8735632,5.38505747 C46.8908046,4.5 46.8850575,3.61494253 46.8735632,2.72988506 C46.8678161,2.44252874 46.9137931,2.25862069 47.2758621,2.26436782 C47.6034483,2.27011494 47.7988506,2.33333333 47.7816092,2.71264368 C47.7586207,3.13793103 47.7758621,3.56896552 47.7758621,4 Z" id="Path" fill="#1C1C1C"></path>
                <path d="M16.1781609,9.81034483 C17.1091954,9.81034483 17.316092,10.091954 17.1149425,10.9597701 C17.0689655,11.1494253 16.9827586,11.2413793 16.7988506,11.2471264 C16.591954,11.2528736 16.3850575,11.2586207 16.183908,11.2586207 C15.362069,11.2586207 15.0057471,10.7758621 15.3218391,10.0344828 C15.5057471,9.60344828 15.9310345,9.90804598 16.1781609,9.81034483 Z" id="Path" fill="#1E1E1E"></path>
                <path d="M47.2643678,1.70689655 C46.9425287,1.74137931 46.8793103,1.56896552 46.8793103,1.29885057 C46.8735632,0.908045977 47.137931,0.954022989 47.3850575,0.942528736 C47.683908,0.931034483 47.7758621,1.08045977 47.7758621,1.35632184 C47.7643678,1.73563218 47.5114943,1.7183908 47.2643678,1.70689655 Z" id="Path" fill="#1C1C1C"></path>
                <path d="M21.8678161,1.70114943 C21.545977,1.73563218 21.3505747,1.66091954 21.3563218,1.31034483 C21.362069,1 21.5229885,0.936781609 21.7873563,0.936781609 C22.0747126,0.931034483 22.2643678,0.982758621 22.2528736,1.33908046 C22.2471264,1.63793103 22.1206897,1.75287356 21.8678161,1.70114943 Z" id="Path" fill="#1C1C1C"></path>
                <path d="M49.6724138,15.816092 C49.6724138,17.0977011 49.2183908,17.683908 48.2643678,17.6494253 C47.3793103,17.6206897 46.8908046,16.8850575 46.954023,15.6896552 C47.0172414,14.5 47.5344828,13.8908046 48.4310345,13.954023 C49.2931034,14.0057471 49.6781609,14.5862069 49.6724138,15.816092 Z" id="Path" fill="#FEFEFE"></path>
                <path d="M10.1551724,3.10344828 C9.79885057,3.16091954 9.52873563,3.05747126 9.56896552,2.49425287 C9.59770115,2.06896552 9.57471264,1.71264368 10.1666667,1.78735632 C10.6436782,1.84482759 11.2126437,1.7816092 11.2068966,2.47126437 C11.2068966,3.07471264 10.7126437,3.0862069 10.1551724,3.10344828 Z" id="Path" fill="#F5F5F5"></path>
                <path d="M44.8563218,3.99425287 C44.8333333,4.42528736 44.7586207,4.88505747 44.1666667,4.85632184 C43.5862069,4.83333333 43.5172414,4.35632184 43.5172414,3.90804598 C43.5172414,3.47126437 43.6436782,3.05172414 44.183908,3.05172414 C44.7701149,3.05747126 44.8448276,3.5 44.8563218,3.99425287 Z" id="Path" fill="#FBFBFB"></path>
                <path d="M18.6609195,3.71264368 C18.4597701,3.59770115 18.0747126,3.85057471 18.0632184,3.47701149 C18.0517241,3.16091954 18.3448276,2.97126437 18.6896552,2.97701149 C19.0229885,2.97701149 19.3390805,3.13793103 19.316092,3.46551724 C19.2816092,3.8908046 18.8678161,3.58045977 18.6609195,3.71264368 Z" id="Path" fill="#F7F7F7"></path>
                <path d="M50.3448276,3.7183908 C50.1264368,3.57471264 49.7126437,3.88505747 49.6954023,3.46551724 C49.683908,3.15517241 49.9885057,2.98275862 50.316092,2.97126437 C50.6494253,2.96551724 50.9482759,3.13793103 50.9482759,3.44827586 C50.9597701,3.9137931 50.5344828,3.55747126 50.3448276,3.7183908 Z" id="Path" fill="#F9F9F9"></path>
                <path d="M37.4367816,3.7183908 C37.1954023,3.59770115 36.8103448,3.85632184 36.7816092,3.5 C36.7586207,3.1954023 37.0517241,2.98850575 37.3908046,2.97701149 C37.7298851,2.96551724 38.0344828,3.12068966 38.0344828,3.44827586 C38.0344828,3.90804598 37.591954,3.53448276 37.4367816,3.7183908 Z" id="Path" fill="#F8F8F8"></path>
            </g>
        </g>
    </g>
</svg>